<?xml version="1.0" encoding="UTF-8"?>
<!DOCTYPE svg PUBLIC "-//W3C//DTD SVG 1.1//EN" "http://www.w3.org/Graphics/SVG/1.1/DTD/svg11.dtd">
<svg xmlns="http://www.w3.org/2000/svg" version="1.1" width="197px" height="229px" style="shape-rendering:geometricPrecision; text-rendering:geometricPrecision; image-rendering:optimizeQuality; fill-rule:evenodd; clip-rule:evenodd" xmlns:xlink="http://www.w3.org/1999/xlink">
<g><path style="opacity:0.031" fill="#5f605f" d="M 98.5,0.5 C 99.8333,1.16667 99.8333,1.16667 98.5,0.5 Z"/></g>
<g><path style="opacity:0.847" fill="#5b585c" d="M 92.5,-0.5 C 94.5,-0.5 96.5,-0.5 98.5,-0.5C 98.5,-0.166667 98.5,0.166667 98.5,0.5C 97.8333,0.5 97.5,0.833333 97.5,1.5C 96.5,2.5 95.5,3.5 94.5,4.5C 92.8543,7.79144 91.1876,11.1248 89.5,14.5C 85.472,20.1869 81.472,25.8535 77.5,31.5C 77.5,30.5 77.5,29.5 77.5,28.5C 80.4449,23.0504 83.6116,17.7171 87,12.5C 87.7401,11.2506 87.5735,10.2506 86.5,9.5C 89.3589,6.24613 91.3589,2.9128 92.5,-0.5 Z"/></g>
<g><path style="opacity:0.055" fill="#6f6b6f" d="M 105.5,13.5 C 104.5,12.8333 103.5,12.1667 102.5,11.5C 101.601,8.60504 100.267,5.93837 98.5,3.5C 99.1174,3.38929 99.6174,3.05596 100,2.5C 102.104,6.08341 103.938,9.75008 105.5,13.5 Z"/></g>
<g><path style="opacity:0.898" fill="#464347" d="M 97.5,1.5 C 97.8333,1.5 98.1667,1.5 98.5,1.5C 98.5,2.16667 98.5,2.83333 98.5,3.5C 100.267,5.93837 101.601,8.60504 102.5,11.5C 101.167,10.1667 99.8333,8.83333 98.5,7.5C 97.7638,5.77055 96.4305,4.77055 94.5,4.5C 95.5,3.5 96.5,2.5 97.5,1.5 Z"/></g>
<g><path style="opacity:0.886" fill="#6b616a" d="M 98.5,7.5 C 99.8333,8.83333 101.167,10.1667 102.5,11.5C 103.5,12.1667 104.5,12.8333 105.5,13.5C 106.579,17.4247 108.579,20.758 111.5,23.5C 113.167,26.8333 114.833,30.1667 116.5,33.5C 114.696,31.5047 112.696,29.8381 110.5,28.5C 107.594,23.6987 104.428,19.032 101,14.5C 99.8638,12.257 99.0305,9.92367 98.5,7.5 Z"/></g>
<g><path style="opacity:0.265" fill="#959294" d="M 86.5,9.5 C 87.5735,10.2506 87.7401,11.2506 87,12.5C 83.6116,17.7171 80.4449,23.0504 77.5,28.5C 76.194,30.4727 74.5273,32.1394 72.5,33.5C 77.155,25.5275 81.8217,17.5275 86.5,9.5 Z"/></g>
<g><path style="opacity:0.02" fill="#888689" d="M 105.5,13.5 C 108.241,15.9754 110.241,18.9754 111.5,22.5C 111.5,22.8333 111.5,23.1667 111.5,23.5C 108.579,20.758 106.579,17.4247 105.5,13.5 Z"/></g>
<g><path style="opacity:0.192" fill="#918a90" d="M 111.5,22.5 C 114.313,25.4459 116.646,28.7792 118.5,32.5C 118.158,33.3382 117.492,33.6716 116.5,33.5C 114.833,30.1667 113.167,26.8333 111.5,23.5C 111.5,23.1667 111.5,22.8333 111.5,22.5 Z"/></g>
<g><path style="opacity:0.859" fill="#4b494c" d="M 77.5,28.5 C 77.5,29.5 77.5,30.5 77.5,31.5C 77.5,32.1667 77.1667,32.5 76.5,32.5C 75.1154,33.5736 73.9487,34.9069 73,36.5C 72.2828,35.9558 71.7828,35.2891 71.5,34.5C 71.5,33.8333 71.8333,33.5 72.5,33.5C 74.5273,32.1394 76.194,30.4727 77.5,28.5 Z"/></g>
<g><path style="opacity:0.075" fill="#908d90" d="M 110.5,28.5 C 112.696,29.8381 114.696,31.5047 116.5,33.5C 116.75,35.674 117.75,37.3406 119.5,38.5C 119.893,40.2838 120.559,41.9505 121.5,43.5C 121.5,44.1667 121.5,44.8333 121.5,45.5C 117.598,40.0401 113.931,34.3734 110.5,28.5 Z"/></g>
<g><path style="opacity:0.259" fill="#756c74" d="M 118.5,32.5 C 119.492,34.4561 120.492,36.4561 121.5,38.5C 121.062,39.5063 120.396,39.5063 119.5,38.5C 117.75,37.3406 116.75,35.674 116.5,33.5C 117.492,33.6716 118.158,33.3382 118.5,32.5 Z"/></g>
<g><path style="opacity:0.921" fill="#5d5c5e" d="M 76.5,32.5 C 76.6168,34.4835 75.9501,36.1502 74.5,37.5C 75.2427,38.1818 75.9094,38.8485 76.5,39.5C 75.603,40.5981 74.7697,40.5981 74,39.5C 73.5304,40.5768 73.6971,41.5768 74.5,42.5C 72.4208,43.7956 70.7541,45.4622 69.5,47.5C 69.5,46.8333 69.5,46.1667 69.5,45.5C 69.9382,45.5654 70.2716,45.3988 70.5,45C 69.7734,43.6012 69.2734,42.1012 69,40.5C 68.7216,41.4158 68.2216,42.0825 67.5,42.5C 68.3045,39.5578 69.6378,36.8911 71.5,34.5C 71.7828,35.2891 72.2828,35.9558 73,36.5C 73.9487,34.9069 75.1154,33.5736 76.5,32.5 Z"/></g>
<g><path style="opacity:0.012" fill="#5d5b5d" d="M 119.5,38.5 C 120.396,39.5063 121.062,39.5063 121.5,38.5C 124.916,42.3233 127.582,46.6566 129.5,51.5C 128.833,51.5 128.5,51.8333 128.5,52.5C 125.925,49.681 123.592,46.681 121.5,43.5C 120.559,41.9505 119.893,40.2838 119.5,38.5 Z"/></g>
<g><path style="opacity:0.88" fill="#3e3c3f" d="M 76.5,39.5 C 77.1667,40.5 77.8333,41.5 78.5,42.5C 78.631,43.2389 78.4643,43.9056 78,44.5C 77.0228,43.2264 76.1894,43.2264 75.5,44.5C 74.6618,44.1583 74.3284,43.4916 74.5,42.5C 73.6971,41.5768 73.5304,40.5768 74,39.5C 74.7697,40.5981 75.603,40.5981 76.5,39.5 Z"/></g>
<g><path style="opacity:0.792" fill="#544f51" d="M 69.5,45.5 C 69.1667,45.5 68.8333,45.5 68.5,45.5C 66.5,47.8333 64.5,50.1667 62.5,52.5C 62.5,51.1667 62.5,49.8333 62.5,48.5C 62.9443,46.8868 63.9443,45.7202 65.5,45C 64.8487,43.692 65.5154,42.8586 67.5,42.5C 68.2216,42.0825 68.7216,41.4158 69,40.5C 69.2734,42.1012 69.7734,43.6012 70.5,45C 70.2716,45.3988 69.9382,45.5654 69.5,45.5 Z"/></g>
<g><path style="opacity:0.812" fill="#5c5a5d" d="M 78.5,42.5 C 81.1667,44.5 83.5,46.8333 85.5,49.5C 85.5,50.8333 84.8333,51.5 83.5,51.5C 80.6215,49.4108 77.9548,47.0775 75.5,44.5C 76.1894,43.2264 77.0228,43.2264 78,44.5C 78.4643,43.9056 78.631,43.2389 78.5,42.5 Z"/></g>
<g><path style="opacity:0.694" fill="#504a4e" d="M 68.5,45.5 C 68.8333,45.5 69.1667,45.5 69.5,45.5C 69.5,46.1667 69.5,46.8333 69.5,47.5C 70.8333,48.5 70.8333,49.5 69.5,50.5C 67.0214,53.72 65.188,57.3867 64,61.5C 63.5357,60.9056 63.369,60.2389 63.5,59.5C 65.1652,54.8382 66.8318,50.1715 68.5,45.5 Z"/></g>
<g><path style="opacity:0.008" fill="#878486" d="M 121.5,43.5 C 123.592,46.681 125.925,49.681 128.5,52.5C 128.751,54.1703 129.418,55.6703 130.5,57C 130.272,57.3988 129.938,57.5654 129.5,57.5C 126.449,53.7771 123.782,49.7771 121.5,45.5C 121.5,44.8333 121.5,44.1667 121.5,43.5 Z"/></g>
<g><path style="opacity:0.031" fill="#5d5a5d" d="M 129.5,51.5 C 132.313,54.4459 134.646,57.7792 136.5,61.5C 135.662,61.8417 135.328,62.5084 135.5,63.5C 133.696,61.5047 131.696,59.8381 129.5,58.5C 129.5,58.1667 129.5,57.8333 129.5,57.5C 129.938,57.5654 130.272,57.3988 130.5,57C 129.418,55.6703 128.751,54.1703 128.5,52.5C 128.5,51.8333 128.833,51.5 129.5,51.5 Z"/></g>
<g><path style="opacity:0.714" fill="#626164" d="M 85.5,49.5 C 88.5272,51.8605 91.1938,54.5271 93.5,57.5C 93.9258,59.1388 93.9258,60.4721 93.5,61.5C 89.5273,58.8607 86.194,55.5273 83.5,51.5C 84.8333,51.5 85.5,50.8333 85.5,49.5 Z"/></g>
<g><path style="opacity:0.565" fill="#837d80" d="M 68.5,45.5 C 66.8318,50.1715 65.1652,54.8382 63.5,59.5C 62.8333,59.5 62.1667,59.5 61.5,59.5C 61.5,59.1667 61.5,58.8333 61.5,58.5C 61.3893,57.8826 61.056,57.3826 60.5,57C 62.0368,55.8904 62.7035,54.3904 62.5,52.5C 64.5,50.1667 66.5,47.8333 68.5,45.5 Z"/></g>
<g><path style="opacity:0.49" fill="#6b676a" d="M 69.5,50.5 C 67.7289,55.1891 66.0623,60.1891 64.5,65.5C 63.7321,64.7375 63.2321,63.7375 63,62.5C 62.3292,63.2524 61.4959,63.5858 60.5,63.5C 61.625,62.3478 61.625,61.3478 60.5,60.5C 60.5,60.1667 60.5,59.8333 60.5,59.5C 60.8333,59.5 61.1667,59.5 61.5,59.5C 62.1667,59.5 62.8333,59.5 63.5,59.5C 63.369,60.2389 63.5357,60.9056 64,61.5C 65.188,57.3867 67.0214,53.72 69.5,50.5 Z"/></g>
<g><path style="opacity:0.565" fill="#5f5b5e" d="M 62.5,48.5 C 62.5,49.8333 62.5,51.1667 62.5,52.5C 62.7035,54.3904 62.0368,55.8904 60.5,57C 61.056,57.3826 61.3893,57.8826 61.5,58.5C 60.8333,58.5 60.5,58.8333 60.5,59.5C 59.1667,59.8333 59.1667,60.1667 60.5,60.5C 58.4991,63.4981 56.1657,66.1648 53.5,68.5C 53.631,67.7611 53.4643,67.0944 53,66.5C 52.6232,67.9423 51.7899,68.9423 50.5,69.5C 54.2783,62.2651 58.2783,55.2651 62.5,48.5 Z"/></g>
<g><path style="opacity:0.943" fill="#474648" d="M 93.5,57.5 C 96.0892,58.4194 98.0892,60.086 99.5,62.5C 97.8333,62.5 96.1667,62.5 94.5,62.5C 93.8333,62.5 93.5,62.1667 93.5,61.5C 93.9258,60.4721 93.9258,59.1388 93.5,57.5 Z"/></g>
<g><path style="opacity:0.451" fill="#534f53" d="M 94.5,62.5 C 96.1667,62.5 97.8333,62.5 99.5,62.5C 100.492,62.3284 101.158,62.6618 101.5,63.5C 100.957,63.56 100.624,63.8933 100.5,64.5C 101.857,66.1856 103.19,67.8523 104.5,69.5C 104.5,69.8333 104.5,70.1667 104.5,70.5C 102.871,69.3747 101.371,68.0414 100,66.5C 99.5357,67.0944 99.369,67.7611 99.5,68.5C 97.4864,66.8171 95.8198,64.8171 94.5,62.5 Z"/></g>
<g><path style="opacity:0.424" fill="#8f8c8e" d="M 129.5,58.5 C 131.696,59.8381 133.696,61.5047 135.5,63.5C 135.75,65.674 136.75,67.3406 138.5,68.5C 138.5,68.8333 138.5,69.1667 138.5,69.5C 137.833,69.5 137.167,69.5 136.5,69.5C 133.917,66.0026 131.584,62.3359 129.5,58.5 Z"/></g>
<g><path style="opacity:0.008" fill="#74686c" d="M 136.5,61.5 C 139.194,65.8507 141.86,70.1841 144.5,74.5C 144.565,74.9382 144.399,75.2716 144,75.5C 142.303,72.98 140.47,70.6467 138.5,68.5C 136.75,67.3406 135.75,65.674 135.5,63.5C 135.328,62.5084 135.662,61.8417 136.5,61.5 Z"/></g>
<g><path style="opacity:0.094" fill="#8e868e" d="M 101.5,63.5 C 104.884,67.2125 108.217,70.8792 111.5,74.5C 108.888,73.2213 106.555,71.5547 104.5,69.5C 103.19,67.8523 101.857,66.1856 100.5,64.5C 100.624,63.8933 100.957,63.56 101.5,63.5 Z"/></g>
<g><path style="opacity:0.835" fill="#5f5d5e" d="M 64.5,65.5 C 61.5661,72.3018 59.2327,79.3018 57.5,86.5C 57.0617,84.3618 56.8951,82.0285 57,79.5C 56.2652,81.8713 55.4318,84.2046 54.5,86.5C 54.0431,87.2975 53.3764,87.6309 52.5,87.5C 54.9834,82.5711 56.4834,77.5711 57,72.5C 57.3333,72.8333 57.6667,73.1667 58,73.5C 57.7258,69.3463 58.5591,66.013 60.5,63.5C 61.4959,63.5858 62.3292,63.2524 63,62.5C 63.2321,63.7375 63.7321,64.7375 64.5,65.5 Z"/></g>
<g><path style="opacity:0.014" fill="#8c898d" d="M 136.5,69.5 C 137.167,69.5 137.833,69.5 138.5,69.5C 141.656,74.4718 144.823,79.4718 148,84.5C 148.692,85.4368 148.525,86.1034 147.5,86.5C 143.584,81.0036 139.918,75.3369 136.5,69.5 Z"/></g>
<g><path style="opacity:0.984" fill="#5a585a" d="M 104.5,69.5 C 106.555,71.5547 108.888,73.2213 111.5,74.5C 111.5,75.1667 111.5,75.8333 111.5,76.5C 110.604,75.4937 109.938,75.4937 109.5,76.5C 108.637,75.537 107.97,75.537 107.5,76.5C 108.63,77.6223 109.297,78.9557 109.5,80.5C 107.549,79.2842 106.049,77.6175 105,75.5C 104.329,76.2524 103.496,76.5858 102.5,76.5C 102.5,75.8333 102.5,75.1667 102.5,74.5C 102.733,72.9382 103.4,71.6049 104.5,70.5C 104.5,70.1667 104.5,69.8333 104.5,69.5 Z"/></g>
<g><path style="opacity:0.62" fill="#545354" d="M 53.5,68.5 C 51.2205,73.7497 48.2205,78.4164 44.5,82.5C 46.0107,80.1625 45.6773,79.4958 43.5,80.5C 44.7734,77.3914 46.2734,74.3914 48,71.5C 48.7083,70.6195 49.5416,69.9528 50.5,69.5C 51.7899,68.9423 52.6232,67.9423 53,66.5C 53.4643,67.0944 53.631,67.7611 53.5,68.5 Z"/></g>
<g><path style="opacity:0.047" fill="#6c676c" d="M 104.5,70.5 C 103.4,71.6049 102.733,72.9382 102.5,74.5C 101.292,75.2341 99.9587,75.5674 98.5,75.5C 101.667,73.395 102,71.0617 99.5,68.5C 99.369,67.7611 99.5357,67.0944 100,66.5C 101.371,68.0414 102.871,69.3747 104.5,70.5 Z"/></g>
<g><path style="opacity:0.58" fill="#494749" d="M 109.5,76.5 C 110.773,78.7128 111.773,81.0462 112.5,83.5C 111.833,83.5 111.5,83.8333 111.5,84.5C 110.326,83.4863 109.66,82.153 109.5,80.5C 109.297,78.9557 108.63,77.6223 107.5,76.5C 107.97,75.537 108.637,75.537 109.5,76.5 Z"/></g>
<g><path style="opacity:0.827" fill="#616061" d="M 111.5,74.5 C 113.785,76.1182 115.785,78.1182 117.5,80.5C 116.833,80.5 116.167,80.5 115.5,80.5C 113.167,80.1667 111.833,78.8333 111.5,76.5C 111.5,75.8333 111.5,75.1667 111.5,74.5 Z"/></g>
<g><path style="opacity:0.906" fill="#5b585c" d="M 138.5,68.5 C 140.47,70.6467 142.303,72.98 144,75.5C 144.399,75.2716 144.565,74.9382 144.5,74.5C 148.82,81.1301 153.153,87.7968 157.5,94.5C 156.883,94.6107 156.383,94.944 156,95.5C 154.333,92.8333 152.667,90.1667 151,87.5C 151.331,89.0187 151.164,90.352 150.5,91.5C 149.752,89.6675 148.752,88.0009 147.5,86.5C 148.525,86.1034 148.692,85.4368 148,84.5C 144.823,79.4718 141.656,74.4718 138.5,69.5C 138.5,69.1667 138.5,68.8333 138.5,68.5 Z"/></g>
<g><path style="opacity:0.553" fill="#585659" d="M 102.5,74.5 C 102.5,75.1667 102.5,75.8333 102.5,76.5C 100.503,78.513 98.836,80.8463 97.5,83.5C 96.0427,81.2476 94.5427,81.5809 93,84.5C 92.6174,83.944 92.1174,83.6107 91.5,83.5C 94.1227,81.0375 96.456,78.3709 98.5,75.5C 99.9587,75.5674 101.292,75.2341 102.5,74.5 Z"/></g>
<g><path style="opacity:0.741" fill="#58565b" d="M 115.5,80.5 C 116.167,80.5 116.833,80.5 117.5,80.5C 119.812,81.4782 121.478,83.1448 122.5,85.5C 123.66,87.2027 122.993,87.8693 120.5,87.5C 119.833,87.5 119.167,87.5 118.5,87.5C 118.5,86.8333 118.5,86.1667 118.5,85.5C 117.075,84.078 116.075,82.4113 115.5,80.5 Z"/></g>
<g><path style="opacity:0.757" fill="#4d4a4d" d="M 44.5,82.5 C 44.6107,83.1174 44.944,83.6174 45.5,84C 42.9458,87.6198 40.2791,91.1198 37.5,94.5C 36.6365,95.463 35.9698,95.463 35.5,94.5C 36.1272,93.5832 36.4606,92.5832 36.5,91.5C 38.1423,88.1806 39.809,84.8472 41.5,81.5C 41.9569,80.7025 42.6236,80.3691 43.5,80.5C 45.6773,79.4958 46.0107,80.1625 44.5,82.5 Z"/></g>
<g><path style="opacity:0.31" fill="#827b83" d="M 111.5,76.5 C 111.833,78.8333 113.167,80.1667 115.5,80.5C 116.075,82.4113 117.075,84.078 118.5,85.5C 117.167,86.1667 117.167,86.8333 118.5,87.5C 118.5,88.1667 118.5,88.8333 118.5,89.5C 117.833,89.8333 117.167,90.1667 116.5,90.5C 115.921,87.6689 114.588,85.3356 112.5,83.5C 111.773,81.0462 110.773,78.7128 109.5,76.5C 109.938,75.4937 110.604,75.4937 111.5,76.5 Z"/></g>
<g><path style="opacity:0.694" fill="#544d53" d="M 57.5,86.5 C 55.6462,89.5126 54.6462,92.5126 54.5,95.5C 53.5041,95.4142 52.6708,95.7476 52,96.5C 51.7679,95.2625 51.2679,94.2625 50.5,93.5C 50.263,90.7409 50.9296,88.7409 52.5,87.5C 53.3764,87.6309 54.0431,87.2975 54.5,86.5C 55.4318,84.2046 56.2652,81.8713 57,79.5C 56.8951,82.0285 57.0617,84.3618 57.5,86.5 Z"/></g>
<g><path style="opacity:0.843" fill="#555256" d="M 112.5,83.5 C 114.588,85.3356 115.921,87.6689 116.5,90.5C 116.443,91.609 116.11,92.609 115.5,93.5C 114.961,90.9145 113.628,88.7479 111.5,87C 112.598,86.2303 112.598,85.397 111.5,84.5C 111.5,83.8333 111.833,83.5 112.5,83.5 Z"/></g>
<g><path style="opacity:0.722" fill="#494649" d="M 97.5,83.5 C 94.9473,85.5968 92.614,87.9302 90.5,90.5C 90.2965,88.6096 90.9632,87.1096 92.5,86C 91.944,85.6174 91.6107,85.1174 91.5,84.5C 91.5,84.1667 91.5,83.8333 91.5,83.5C 92.1174,83.6107 92.6174,83.944 93,84.5C 94.5427,81.5809 96.0427,81.2476 97.5,83.5 Z"/></g>
<g><path style="opacity:0.796" fill="#5c5b5f" d="M 122.5,85.5 C 124.452,86.7847 126.118,88.4514 127.5,90.5C 126.508,90.3284 125.842,90.6618 125.5,91.5C 123.809,90.1363 122.142,88.803 120.5,87.5C 122.993,87.8693 123.66,87.2027 122.5,85.5 Z"/></g>
<g><path style="opacity:0.463" fill="#706c72" d="M 91.5,84.5 C 91.6107,85.1174 91.944,85.6174 92.5,86C 90.9632,87.1096 90.2965,88.6096 90.5,90.5C 90.573,92.0269 89.9063,93.0269 88.5,93.5C 88.631,92.7611 88.4643,92.0944 88,91.5C 87.1841,92.8228 86.0174,93.4894 84.5,93.5C 86.4821,90.1897 88.8154,87.1897 91.5,84.5 Z"/></g>
<g><path style="opacity:0.812" fill="#595658" d="M 127.5,90.5 C 129.5,91.8333 131.167,93.5 132.5,95.5C 131.348,94.375 130.348,94.375 129.5,95.5C 127.833,94.5 126.5,93.1667 125.5,91.5C 125.842,90.6618 126.508,90.3284 127.5,90.5 Z"/></g>
<g><path style="opacity:0.404" fill="#565255" d="M 88.5,93.5 C 89.2341,94.7079 89.5674,96.0413 89.5,97.5C 88.609,96.8902 87.609,96.5569 86.5,96.5C 85.448,96.6495 84.448,96.4828 83.5,96C 84.7383,95.31 84.7383,94.81 83.5,94.5C 83.5,93.8333 83.8333,93.5 84.5,93.5C 86.0174,93.4894 87.1841,92.8228 88,91.5C 88.4643,92.0944 88.631,92.7611 88.5,93.5 Z"/></g>
<g><path style="opacity:0.78" fill="#4d4a4e" d="M 157.5,94.5 C 160.528,99.8504 163.528,105.184 166.5,110.5C 165.833,110.833 165.167,111.167 164.5,111.5C 159.846,104.871 155.179,98.2041 150.5,91.5C 151.164,90.352 151.331,89.0187 151,87.5C 152.667,90.1667 154.333,92.8333 156,95.5C 156.383,94.944 156.883,94.6107 157.5,94.5 Z"/></g>
<g><path style="opacity:0.737" fill="#5b575b" d="M 36.5,91.5 C 36.4606,92.5832 36.1272,93.5832 35.5,94.5C 35.9698,95.463 36.6365,95.463 37.5,94.5C 37.2671,96.0618 36.6005,97.3951 35.5,98.5C 34.8826,98.3893 34.3826,98.056 34,97.5C 32.9609,98.7101 31.7942,99.7101 30.5,100.5C 31.7589,96.9754 33.7589,93.9754 36.5,91.5 Z"/></g>
<g><path style="opacity:0.969" fill="#716b70" d="M 83.5,94.5 C 84.7383,94.81 84.7383,95.31 83.5,96C 84.448,96.4828 85.448,96.6495 86.5,96.5C 87.1027,97.6348 87.4361,98.6348 87.5,99.5C 87.5,100.167 87.1667,100.5 86.5,100.5C 85.7784,100.082 85.2784,99.4158 85,98.5C 84.6339,100.452 83.8005,102.118 82.5,103.5C 82.5,103.833 82.5,104.167 82.5,104.5C 82.5,105.167 82.1667,105.5 81.5,105.5C 80.7978,104.884 79.7978,104.884 78.5,105.5C 79.4558,104.341 80.4558,103.174 81.5,102C 82.1868,100.838 82.3534,99.6716 82,98.5C 80.3343,101.331 78.1676,103.664 75.5,105.5C 77.4354,101.293 80.1021,97.6267 83.5,94.5 Z"/></g>
<g><path style="opacity:0.898" fill="#504e51" d="M 118.5,89.5 C 121.37,93.7815 123.37,97.7815 124.5,101.5C 124.058,102.231 123.891,103.231 124,104.5C 123.617,103.944 123.117,103.611 122.5,103.5C 121.504,103.586 120.671,103.252 120,102.5C 119.158,99.1614 117.658,96.1614 115.5,93.5C 116.11,92.609 116.443,91.609 116.5,90.5C 117.167,90.1667 117.833,89.8333 118.5,89.5 Z"/></g>
<g><path style="opacity:0.878" fill="#474548" d="M 132.5,95.5 C 134.23,96.0256 135.564,97.0256 136.5,98.5C 135.262,98.81 135.262,99.31 136.5,100C 135.906,100.464 135.239,100.631 134.5,100.5C 132.5,99.1667 130.833,97.5 129.5,95.5C 130.348,94.375 131.348,94.375 132.5,95.5 Z"/></g>
<g><path style="opacity:0.173" fill="#767379" d="M 50.5,93.5 C 51.2679,94.2625 51.7679,95.2625 52,96.5C 52.6708,95.7476 53.5041,95.4142 54.5,95.5C 53.2702,97.2972 52.6036,99.2972 52.5,101.5C 51.71,100.391 51.21,99.0581 51,97.5C 49.872,99.3453 49.372,101.345 49.5,103.5C 48.7784,103.918 48.2784,104.584 48,105.5C 47.6174,104.944 47.1174,104.611 46.5,104.5C 47.9845,100.9 49.3178,97.2336 50.5,93.5 Z"/></g>
<g><path style="opacity:0.294" fill="#525056" d="M 86.5,96.5 C 87.609,96.5569 88.609,96.8902 89.5,97.5C 90.1174,97.3893 90.6174,97.056 91,96.5C 95.0906,100.429 99.5906,103.763 104.5,106.5C 104.167,107.833 103.833,109.167 103.5,110.5C 97.398,107.154 92.0647,103.487 87.5,99.5C 87.4361,98.6348 87.1027,97.6348 86.5,96.5 Z"/></g>
<g><path style="opacity:0.435" fill="#47464a" d="M 28.5,102.5 C 28.5,101.833 28.8333,101.5 29.5,101.5C 30.4013,102.29 31.0679,103.29 31.5,104.5C 30.9744,106.23 29.9744,107.564 28.5,108.5C 27.6365,109.463 26.9698,109.463 26.5,108.5C 27.7515,106.999 28.7515,105.332 29.5,103.5C 29.3764,102.893 29.0431,102.56 28.5,102.5 Z"/></g>
<g><path style="opacity:0.655" fill="#3d3a3e" d="M 35.5,98.5 C 34.5254,100.795 33.1921,102.795 31.5,104.5C 31.0679,103.29 30.4013,102.29 29.5,101.5C 29.5,100.833 29.8333,100.5 30.5,100.5C 31.7942,99.7101 32.9609,98.7101 34,97.5C 34.3826,98.056 34.8826,98.3893 35.5,98.5 Z"/></g>
<g><path style="opacity:0.459" fill="#585659" d="M 136.5,98.5 C 138.5,99.8333 140.167,101.5 141.5,103.5C 140.89,104.391 140.557,105.391 140.5,106.5C 138.167,104.833 136.167,102.833 134.5,100.5C 135.239,100.631 135.906,100.464 136.5,100C 135.262,99.31 135.262,98.81 136.5,98.5 Z"/></g>
<g><path style="opacity:0.451" fill="#5b595e" d="M 52.5,101.5 C 51.5637,105.309 50.2304,108.975 48.5,112.5C 47.9033,112.265 47.5699,111.765 47.5,111C 48.4788,108.567 49.1455,106.067 49.5,103.5C 49.372,101.345 49.872,99.3453 51,97.5C 51.21,99.0581 51.71,100.391 52.5,101.5 Z"/></g>
<g><path style="opacity:0.643" fill="#49474a" d="M 86.5,100.5 C 86.3857,103.64 86.0523,106.64 85.5,109.5C 84.8333,110.833 84.1667,112.167 83.5,113.5C 83.6716,112.508 83.3382,111.842 82.5,111.5C 82.6771,109.693 82.3438,107.693 81.5,105.5C 82.1667,105.5 82.5,105.167 82.5,104.5C 83.8333,104.167 83.8333,103.833 82.5,103.5C 83.8005,102.118 84.6339,100.452 85,98.5C 85.2784,99.4158 85.7784,100.082 86.5,100.5 Z"/></g>
<g><path style="opacity:0.608" fill="#4c4a4f" d="M 49.5,103.5 C 49.1455,106.067 48.4788,108.567 47.5,111C 47.5699,111.765 47.9033,112.265 48.5,112.5C 48.5,113.167 48.1667,113.5 47.5,113.5C 46.2921,114.234 44.9587,114.567 43.5,114.5C 44.8991,111.301 45.8991,107.968 46.5,104.5C 47.1174,104.611 47.6174,104.944 48,105.5C 48.2784,104.584 48.7784,103.918 49.5,103.5 Z"/></g>
<g><path style="opacity:0.635" fill="#4d4b4f" d="M 78.5,105.5 C 77.8763,107.754 76.543,109.421 74.5,110.5C 74.5,109.833 74.5,109.167 74.5,108.5C 74.5,107.833 74.5,107.167 74.5,106.5C 74.5,105.833 74.8333,105.5 75.5,105.5C 78.1676,103.664 80.3343,101.331 82,98.5C 82.3534,99.6716 82.1868,100.838 81.5,102C 80.4558,103.174 79.4558,104.341 78.5,105.5 Z"/></g>
<g><path style="opacity:0.604" fill="#4a484b" d="M 141.5,103.5 C 143.122,104.122 144.455,105.122 145.5,106.5C 144.508,106.328 143.842,106.662 143.5,107.5C 143.5,108.167 143.5,108.833 143.5,109.5C 142.167,108.833 141.167,107.833 140.5,106.5C 140.557,105.391 140.89,104.391 141.5,103.5 Z"/></g>
<g><path style="opacity:0.31" fill="#68636a" d="M 124.5,101.5 C 126.471,104.456 128.471,107.456 130.5,110.5C 131.246,111.736 131.579,113.07 131.5,114.5C 129.575,112.6 127.742,109.933 126,106.5C 124.893,105.288 124.393,105.621 124.5,107.5C 123.761,107.631 123.094,107.464 122.5,107C 123.171,106.014 123.171,104.847 122.5,103.5C 123.117,103.611 123.617,103.944 124,104.5C 123.891,103.231 124.058,102.231 124.5,101.5 Z"/></g>
<g><path style="opacity:0.808" fill="#5a575c" d="M 28.5,102.5 C 29.0431,102.56 29.3764,102.893 29.5,103.5C 28.7515,105.332 27.7515,106.999 26.5,108.5C 26.9698,109.463 27.6365,109.463 28.5,108.5C 27.6597,110.853 26.3264,112.853 24.5,114.5C 24.4142,113.504 24.7476,112.671 25.5,112C 24.9056,111.536 24.2389,111.369 23.5,111.5C 24.9009,108.366 26.5675,105.366 28.5,102.5 Z"/></g>
<g><path style="opacity:0.086" fill="#828283" d="M 74.5,106.5 C 74.5,107.167 74.5,107.833 74.5,108.5C 71.8333,111.167 69.1667,113.833 66.5,116.5C 68.2076,112.428 70.8743,109.095 74.5,106.5 Z"/></g>
<g><path style="opacity:0.624" fill="#5c5a61" d="M 104.5,106.5 C 108.35,109.261 112.017,112.261 115.5,115.5C 114.761,115.369 114.094,115.536 113.5,116C 114.738,116.69 114.738,117.19 113.5,117.5C 110.167,115.167 106.833,112.833 103.5,110.5C 103.833,109.167 104.167,107.833 104.5,106.5 Z"/></g>
<g><path style="opacity:0.541" fill="#434044" d="M 143.5,107.5 C 146.167,109.5 148.5,111.833 150.5,114.5C 150.5,115.167 150.5,115.833 150.5,116.5C 147.861,114.527 145.527,112.194 143.5,109.5C 143.5,108.833 143.5,108.167 143.5,107.5 Z"/></g>
<g><path style="opacity:0.906" fill="#505051" d="M 74.5,108.5 C 74.5,109.167 74.5,109.833 74.5,110.5C 71.5367,114.798 68.2034,118.798 64.5,122.5C 64.5912,120.302 63.9245,119.969 62.5,121.5C 63.0798,119.251 64.4131,117.585 66.5,116.5C 69.1667,113.833 71.8333,111.167 74.5,108.5 Z"/></g>
<g><path style="opacity:0.533" fill="#4f4a50" d="M 23.5,111.5 C 24.2389,111.369 24.9056,111.536 25.5,112C 24.7476,112.671 24.4142,113.504 24.5,114.5C 24.2503,116.674 23.2503,118.341 21.5,119.5C 23.0781,117.625 22.7448,116.292 20.5,115.5C 21.5116,114.128 22.5116,112.795 23.5,111.5 Z"/></g>
<g><path style="opacity:0.02" fill="#616062" d="M 82.5,111.5 C 83.3382,111.842 83.6716,112.508 83.5,113.5C 82.9612,117.568 82.2946,121.901 81.5,126.5C 80.0471,121.323 80.3805,116.323 82.5,111.5 Z"/></g>
<g><path style="opacity:0.898" fill="#454146" d="M 131.5,114.5 C 132.239,114.369 132.906,114.536 133.5,115C 132.402,115.77 132.402,116.603 133.5,117.5C 132.778,118.551 131.778,119.218 130.5,119.5C 129.837,116.336 128.17,113.836 125.5,112C 125.833,111.667 126.167,111.333 126.5,111C 125.027,110.29 124.36,109.124 124.5,107.5C 124.393,105.621 124.893,105.288 126,106.5C 127.742,109.933 129.575,112.6 131.5,114.5 Z"/></g>
<g><path style="opacity:0.706" fill="#5d585d" d="M 143.5,107.5 C 143.842,106.662 144.508,106.328 145.5,106.5C 148.89,110.218 152.223,113.885 155.5,117.5C 153.589,116.925 151.922,115.925 150.5,114.5C 148.5,111.833 146.167,109.5 143.5,107.5 Z"/></g>
<g><path style="opacity:0.761" fill="#4f4d50" d="M 85.5,109.5 C 85.4142,110.496 85.7476,111.329 86.5,112C 85.3372,116.972 84.3372,121.972 83.5,127C 83.4698,128.429 83.8031,129.929 84.5,131.5C 83.8333,131.833 83.1667,132.167 82.5,132.5C 81.9553,128.828 81.6219,129.162 81.5,133.5C 81.1667,133.5 80.8333,133.5 80.5,133.5C 80.298,131.05 80.6314,128.717 81.5,126.5C 82.2946,121.901 82.9612,117.568 83.5,113.5C 84.1667,112.167 84.8333,110.833 85.5,109.5 Z"/></g>
<g><path style="opacity:0.78" fill="#4f4c50" d="M 166.5,110.5 C 167.89,111.899 168.89,113.566 169.5,115.5C 169.5,116.833 169.5,118.167 169.5,119.5C 167.336,117.178 165.669,114.511 164.5,111.5C 165.167,111.167 165.833,110.833 166.5,110.5 Z"/></g>
<g><path style="opacity:0.671" fill="#474449" d="M 169.5,115.5 C 171.791,116.542 172.791,118.042 172.5,120C 174.063,120.759 175.063,121.926 175.5,123.5C 174.833,124.167 174.167,124.833 173.5,125.5C 171.204,124.267 169.87,122.267 169.5,119.5C 169.5,118.167 169.5,116.833 169.5,115.5 Z"/></g>
<g><path style="opacity:0.851" fill="#484549" d="M 20.5,115.5 C 22.7448,116.292 23.0781,117.625 21.5,119.5C 20.2101,120.058 19.3768,121.058 19,122.5C 18.7216,121.584 18.2216,120.918 17.5,120.5C 18.075,118.589 19.075,116.922 20.5,115.5 Z"/></g>
<g><path style="opacity:0.557" fill="#555356" d="M 47.5,113.5 C 45.8745,119.381 43.8745,125.047 41.5,130.5C 40.6618,130.842 40.3284,131.508 40.5,132.5C 39.596,131.791 39.2627,130.791 39.5,129.5C 41.0994,126.216 42.4327,122.716 43.5,119C 43.4301,118.235 43.0967,117.735 42.5,117.5C 43.1027,116.365 43.4361,115.365 43.5,114.5C 44.9587,114.567 46.2921,114.234 47.5,113.5 Z"/></g>
<g><path style="opacity:0.898" fill="#4e4c4f" d="M 115.5,115.5 C 118.627,118.898 122.293,121.565 126.5,123.5C 127.492,123.328 128.158,123.662 128.5,124.5C 127.167,124.5 126.5,125.167 126.5,126.5C 122.177,124.295 117.844,121.295 113.5,117.5C 114.738,117.19 114.738,116.69 113.5,116C 114.094,115.536 114.761,115.369 115.5,115.5 Z"/></g>
<g><path style="opacity:0.2" fill="#6a686a" d="M 115.5,115.5 C 118.274,116.723 120.941,118.223 123.5,120C 125.063,120.759 126.063,121.926 126.5,123.5C 122.293,121.565 118.627,118.898 115.5,115.5 Z"/></g>
<g><path style="opacity:0.875" fill="#454145" d="M 150.5,114.5 C 151.922,115.925 153.589,116.925 155.5,117.5C 157.993,117.131 158.66,117.797 157.5,119.5C 156.791,120.404 155.791,120.737 154.5,120.5C 153.167,119.167 151.833,117.833 150.5,116.5C 150.5,115.833 150.5,115.167 150.5,114.5 Z"/></g>
<g><path style="opacity:0.831" fill="#524e54" d="M 157.5,119.5 C 159.5,120.833 161.167,122.5 162.5,124.5C 161.508,124.328 160.842,124.662 160.5,125.5C 158.475,123.804 156.475,122.137 154.5,120.5C 155.791,120.737 156.791,120.404 157.5,119.5 Z"/></g>
<g><path style="opacity:0.706" fill="#59545a" d="M 21.5,119.5 C 19.858,123.121 17.858,126.454 15.5,129.5C 17.1897,125.488 16.523,124.822 13.5,127.5C 14.8056,125.184 16.1389,122.85 17.5,120.5C 18.2216,120.918 18.7216,121.584 19,122.5C 19.3768,121.058 20.2101,120.058 21.5,119.5 Z"/></g>
<g><path style="opacity:0.616" fill="#4a484b" d="M 64.5,122.5 C 62.1919,125.815 59.8586,129.149 57.5,132.5C 56.5084,132.328 55.8417,132.662 55.5,133.5C 54.375,132.652 54.375,131.652 55.5,130.5C 57.4821,127.19 59.8154,124.19 62.5,121.5C 63.9245,119.969 64.5912,120.302 64.5,122.5 Z"/></g>
<g><path style="opacity:0.396" fill="#4f4b50" d="M 133.5,117.5 C 133.944,119.113 134.944,120.28 136.5,121C 135.346,121.914 135.513,122.747 137,123.5C 138.666,122.66 138.833,123.16 137.5,125C 138.582,126.33 139.249,127.83 139.5,129.5C 139.631,130.239 139.464,130.906 139,131.5C 137.933,129.308 136.433,127.642 134.5,126.5C 134.015,124.186 132.682,121.852 130.5,119.5C 131.778,119.218 132.778,118.551 133.5,117.5 Z"/></g>
<g><path style="opacity:0.569" fill="#464246" d="M 128.5,124.5 C 130.517,125.529 132.517,126.529 134.5,127.5C 134.859,129.371 135.859,130.871 137.5,132C 137.272,132.399 136.938,132.565 136.5,132.5C 135.833,132.5 135.167,132.5 134.5,132.5C 131.833,130.5 129.167,128.5 126.5,126.5C 126.5,125.167 127.167,124.5 128.5,124.5 Z"/></g>
<g><path style="opacity:0.102" fill="#69656b" d="M 42.5,117.5 C 43.0967,117.735 43.4301,118.235 43.5,119C 42.4327,122.716 41.0994,126.216 39.5,129.5C 39.3893,128.883 39.056,128.383 38.5,128C 40.3308,124.672 41.6642,121.172 42.5,117.5 Z"/></g>
<g><path style="opacity:0.859" fill="#525054" d="M 162.5,124.5 C 165.079,127.135 168.079,129.301 171.5,131C 170.944,131.383 170.611,131.883 170.5,132.5C 169.18,131.058 167.514,130.392 165.5,130.5C 163.167,129.5 161.5,127.833 160.5,125.5C 160.842,124.662 161.508,124.328 162.5,124.5 Z"/></g>
<g><path style="opacity:0.796" fill="#504d4f" d="M 175.5,123.5 C 176.32,125.14 177.153,126.807 178,128.5C 178.333,128.167 178.667,127.833 179,127.5C 179.49,128.793 179.657,130.127 179.5,131.5C 179.631,132.239 179.464,132.906 179,133.5C 178.292,132.619 177.458,131.953 176.5,131.5C 174.654,129.97 173.654,127.97 173.5,125.5C 174.167,124.833 174.833,124.167 175.5,123.5 Z"/></g>
<g><path style="opacity:0.016" fill="#3f403f" d="M 180.5,130.5 C 181.833,131.167 181.833,131.167 180.5,130.5 Z"/></g>
<g><path style="opacity:0.733" fill="#4b484e" d="M 15.5,129.5 C 15.2178,130.778 14.5511,131.778 13.5,132.5C 12.7109,132.783 12.0442,133.283 11.5,134C 18.1583,134.5 24.825,134.666 31.5,134.5C 31.8333,134.5 32.1667,134.5 32.5,134.5C 34.099,134.232 35.4324,134.566 36.5,135.5C 30.9738,135.179 25.6405,135.512 20.5,136.5C 16.4862,136.666 12.4862,136.499 8.5,136C 9.54962,132.724 11.2163,129.89 13.5,127.5C 16.523,124.822 17.1897,125.488 15.5,129.5 Z"/></g>
<g><path style="opacity:0.049" fill="#939296" d="M 41.5,130.5 C 41.8039,131.15 42.1373,131.817 42.5,132.5C 45.7683,133.487 49.1016,133.82 52.5,133.5C 52.5,133.833 52.5,134.167 52.5,134.5C 48.1539,134.666 43.8206,134.499 39.5,134C 40.056,133.617 40.3893,133.117 40.5,132.5C 40.3284,131.508 40.6618,130.842 41.5,130.5 Z"/></g>
<g><path style="opacity:0.045" fill="#7a7884" d="M 13.5,132.5 C 19.6336,133.086 25.6336,133.752 31.5,134.5C 24.825,134.666 18.1583,134.5 11.5,134C 12.0442,133.283 12.7109,132.783 13.5,132.5 Z"/></g>
<g><path style="opacity:0.953" fill="#69676c" d="M 134.5,126.5 C 136.433,127.642 137.933,129.308 139,131.5C 139.464,130.906 139.631,130.239 139.5,129.5C 140.71,129.932 141.71,130.599 142.5,131.5C 141.662,131.842 141.328,132.508 141.5,133.5C 140.833,133.833 140.167,134.167 139.5,134.5C 139.167,134.5 138.833,134.5 138.5,134.5C 137.833,133.833 137.167,133.167 136.5,132.5C 136.938,132.565 137.272,132.399 137.5,132C 135.859,130.871 134.859,129.371 134.5,127.5C 134.5,127.167 134.5,126.833 134.5,126.5 Z"/></g>
<g><path style="opacity:0.882" fill="#4a484d" d="M 165.5,130.5 C 167.514,130.392 169.18,131.058 170.5,132.5C 171.167,132.833 171.833,133.167 172.5,133.5C 174.292,134.309 176.292,134.809 178.5,135C 175.518,135.498 172.518,135.665 169.5,135.5C 169.5,135.167 169.5,134.833 169.5,134.5C 169.938,134.565 170.272,134.399 170.5,134C 169.473,133.487 168.473,132.987 167.5,132.5C 166.5,132.167 165.833,131.5 165.5,130.5 Z"/></g>
<g><path style="opacity:0.051" fill="#8d878d" d="M 57.5,132.5 C 64.9818,133.492 72.6484,133.825 80.5,133.5C 80.8333,133.5 81.1667,133.5 81.5,133.5C 75.021,134.491 68.3543,134.824 61.5,134.5C 59.2646,134.795 57.2646,134.461 55.5,133.5C 55.8417,132.662 56.5084,132.328 57.5,132.5 Z"/></g>
<g><path style="opacity:0.043" fill="#99999a" d="M 84.5,131.5 C 96.4547,133.48 108.788,134.146 121.5,133.5C 121.5,133.833 121.5,134.167 121.5,134.5C 108.124,135.148 95.1237,134.481 82.5,132.5C 83.1667,132.167 83.8333,131.833 84.5,131.5 Z"/></g>
<g><path style="opacity:0.086" fill="#7a7781" d="M 134.5,132.5 C 135.167,132.5 135.833,132.5 136.5,132.5C 137.167,133.167 137.833,133.833 138.5,134.5C 138.167,134.5 137.833,134.5 137.5,134.5C 132.167,134.5 126.833,134.5 121.5,134.5C 121.5,134.167 121.5,133.833 121.5,133.5C 126.032,133.818 130.366,133.485 134.5,132.5 Z"/></g>
<g><path style="opacity:0.027" fill="#918d93" d="M 142.5,131.5 C 142.611,132.117 142.944,132.617 143.5,133C 151.677,133.823 159.677,133.656 167.5,132.5C 168.473,132.987 169.473,133.487 170.5,134C 170.272,134.399 169.938,134.565 169.5,134.5C 159.985,134.827 150.652,134.494 141.5,133.5C 141.328,132.508 141.662,131.842 142.5,131.5 Z"/></g>
<g><path style="opacity:0.969" fill="#5d5760" d="M 39.5,129.5 C 39.2627,130.791 39.596,131.791 40.5,132.5C 40.3893,133.117 40.056,133.617 39.5,134C 43.8206,134.499 48.1539,134.666 52.5,134.5C 53.5573,135.206 53.2239,135.539 51.5,135.5C 46.5,135.5 41.5,135.5 36.5,135.5C 35.4324,134.566 34.099,134.232 32.5,134.5C 34.0419,133.837 35.7086,133.17 37.5,132.5C 37.9424,131.261 38.6091,130.261 39.5,129.5 Z"/></g>
<g><path style="opacity:0.816" fill="#444048" d="M 82.5,132.5 C 95.1237,134.481 108.124,135.148 121.5,134.5C 126.833,134.5 132.167,134.5 137.5,134.5C 112.672,135.498 87.6722,135.831 62.5,135.5C 61.8333,135.5 61.5,135.167 61.5,134.5C 68.3543,134.824 75.021,134.491 81.5,133.5C 81.6219,129.162 81.9553,128.828 82.5,132.5 Z"/></g>
<g><path style="opacity:0.82" fill="#413f44" d="M 141.5,133.5 C 150.652,134.494 159.985,134.827 169.5,134.5C 169.5,134.833 169.5,135.167 169.5,135.5C 166.167,135.5 162.833,135.5 159.5,135.5C 152.646,135.824 145.979,135.491 139.5,134.5C 140.167,134.167 140.833,133.833 141.5,133.5 Z"/></g>
<g><path style="opacity:0.647" fill="#857a88" d="M 20.5,136.5 C 25.6405,135.512 30.9738,135.179 36.5,135.5C 41.5,135.5 46.5,135.5 51.5,135.5C 51.5,135.833 51.5,136.167 51.5,136.5C 41.0124,137.329 30.679,137.329 20.5,136.5 Z"/></g>
<g><path style="opacity:0.647" fill="#646067" d="M 55.5,130.5 C 54.375,131.652 54.375,132.652 55.5,133.5C 57.2646,134.461 59.2646,134.795 61.5,134.5C 61.5,135.167 61.8333,135.5 62.5,135.5C 62.5,135.833 62.5,136.167 62.5,136.5C 58.8333,136.5 55.1667,136.5 51.5,136.5C 51.5,136.167 51.5,135.833 51.5,135.5C 53.2239,135.539 53.5573,135.206 52.5,134.5C 52.5,134.167 52.5,133.833 52.5,133.5C 52.8564,131.81 53.8564,130.81 55.5,130.5 Z"/></g>
<g><path style="opacity:0.655" fill="#6b676e" d="M 137.5,134.5 C 137.833,134.5 138.167,134.5 138.5,134.5C 138.833,134.5 139.167,134.5 139.5,134.5C 145.979,135.491 152.646,135.824 159.5,135.5C 159.5,135.833 159.5,136.167 159.5,136.5C 127.167,136.5 94.8333,136.5 62.5,136.5C 62.5,136.167 62.5,135.833 62.5,135.5C 87.6722,135.831 112.672,135.498 137.5,134.5 Z"/></g>
<g><path style="opacity:0.333" fill="#646166" d="M 176.5,131.5 C 177.458,131.953 178.292,132.619 179,133.5C 179.464,132.906 179.631,132.239 179.5,131.5C 179.833,131.5 180.167,131.5 180.5,131.5C 183.214,133.783 183.047,135.783 180,137.5C 173.256,136.521 166.422,136.188 159.5,136.5C 159.5,136.167 159.5,135.833 159.5,135.5C 162.833,135.5 166.167,135.5 169.5,135.5C 172.518,135.665 175.518,135.498 178.5,135C 176.292,134.809 174.292,134.309 172.5,133.5C 174.38,133.771 175.713,133.104 176.5,131.5 Z"/></g>
<g><path style="opacity:0.466" fill="#272427" d="M 76.5,150.5 C 75.5041,150.586 74.6708,150.252 74,149.5C 73.3334,144.614 72.1667,144.614 70.5,149.5C 69.5876,148.262 69.4209,146.928 70,145.5C 74.0738,141.766 78.2404,141.599 82.5,145C 80.1195,146.726 77.6195,147.226 75,146.5C 74.8333,146.833 74.6667,147.167 74.5,147.5C 75.376,148.251 76.376,148.751 77.5,149C 76.944,149.383 76.6107,149.883 76.5,150.5 Z"/></g>
<g><path style="opacity:0.973" fill="#090405" d="M 104.5,144.5 C 106.5,144.5 108.5,144.5 110.5,144.5C 110.629,146.216 110.962,147.883 111.5,149.5C 111.72,152.622 111.72,155.956 111.5,159.5C 109.564,155.285 108.897,150.619 109.5,145.5C 107.585,145.784 105.919,145.451 104.5,144.5 Z"/></g>
<g><path style="opacity:0.986" fill="#292527" d="M 111.5,149.5 C 110.962,147.883 110.629,146.216 110.5,144.5C 108.5,144.5 106.5,144.5 104.5,144.5C 104.5,144.167 104.5,143.833 104.5,143.5C 109.001,143.467 113.501,143.467 118,143.5C 118.688,144.332 118.521,144.998 117.5,145.5C 115.089,146.361 113.089,147.694 111.5,149.5 Z"/></g>
<g><path style="opacity:0.954" fill="#201d20" d="M 143.5,148.5 C 142.778,147.449 141.778,146.782 140.5,146.5C 144.222,141.662 148.555,141.162 153.5,145C 152.874,145.75 152.374,146.584 152,147.5C 150.34,147.676 148.674,147.009 147,145.5C 145.855,146.636 144.688,147.636 143.5,148.5 Z"/></g>
<g><path style="opacity:0.964" fill="#1b181a" d="M 26.5,143.5 C 26.6107,144.117 26.944,144.617 27.5,145C 24.9644,145.186 22.631,145.686 20.5,146.5C 19.1667,146.833 19.1667,147.167 20.5,147.5C 18.3061,149.213 17.3061,151.213 17.5,153.5C 16.1201,153.038 15.4534,152.038 15.5,150.5C 15.8457,149.151 16.179,147.817 16.5,146.5C 16.8039,145.85 17.1373,145.183 17.5,144.5C 20.4281,143.516 23.4281,143.183 26.5,143.5 Z"/></g>
<g><path style="opacity:0.141" fill="#373537" d="M 26.5,143.5 C 30.0289,144.03 30.3622,145.363 27.5,147.5C 24.9047,146.78 22.5714,146.78 20.5,147.5C 20.5,147.167 20.5,146.833 20.5,146.5C 22.631,145.686 24.9644,145.186 27.5,145C 26.944,144.617 26.6107,144.117 26.5,143.5 Z"/></g>
<g><path style="opacity:0.946" fill="#100c10" d="M 76.5,150.5 C 76.5,151.833 75.8333,152.5 74.5,152.5C 72.8784,151.878 71.5451,150.878 70.5,149.5C 72.1667,144.614 73.3334,144.614 74,149.5C 74.6708,150.252 75.5041,150.586 76.5,150.5 Z"/></g>
<g><path style="opacity:0.976" fill="#262325" d="M 96.5,146.5 C 95.9032,145.861 95.0698,145.528 94,145.5C 92.3009,145.387 91.1342,146.053 90.5,147.5C 89.8333,147.167 89.1667,146.833 88.5,146.5C 88.1667,146.5 87.8333,146.5 87.5,146.5C 90.6253,141.978 94.6253,141.311 99.5,144.5C 98.7353,146.383 97.7353,147.049 96.5,146.5 Z"/></g>
<g><path style="opacity:0.943" fill="#191719" d="M 140.5,146.5 C 141.778,146.782 142.778,147.449 143.5,148.5C 143.5,149.167 143.5,149.833 143.5,150.5C 141.991,149.141 141.324,149.641 141.5,152C 142.302,157.879 145.636,160.045 151.5,158.5C 151.586,159.496 151.252,160.329 150.5,161C 139.821,161.13 136.488,156.297 140.5,146.5 Z"/></g>
<g><path style="opacity:0.965" fill="#0f0c0e" d="M 171.5,143.5 C 171.666,148.844 171.499,154.177 171,159.5C 170.617,158.944 170.117,158.611 169.5,158.5C 169.5,157.5 169.5,156.5 169.5,155.5C 169.5,153.167 169.5,150.833 169.5,148.5C 168.962,146.883 168.629,145.216 168.5,143.5C 169.5,143.5 170.5,143.5 171.5,143.5 Z"/></g>
<g><path style="opacity:0.067" fill="#554d53" d="M 96.5,146.5 C 95.5,146.5 94.5,146.5 93.5,146.5C 93.5,147.833 93.5,149.167 93.5,150.5C 91.5,150.5 90.5,149.5 90.5,147.5C 91.1342,146.053 92.3009,145.387 94,145.5C 95.0698,145.528 95.9032,145.861 96.5,146.5 Z"/></g>
<g><path style="opacity:0.844" fill="#222022" d="M 159.5,143.5 C 160.5,143.5 161.5,143.5 162.5,143.5C 162.396,148.74 164.729,150.406 169.5,148.5C 169.5,150.833 169.5,153.167 169.5,155.5C 166.24,152.585 163.573,153.085 161.5,157C 162.056,157.383 162.389,157.883 162.5,158.5C 161.85,158.804 161.183,159.137 160.5,159.5C 159.505,154.208 159.172,148.875 159.5,143.5 Z"/></g>
<g><path style="opacity:0.824" fill="#2d252a" d="M 132.5,145.5 C 131.828,146.267 130.995,146.934 130,147.5C 127.553,146.004 126.719,146.337 127.5,148.5C 126.833,148.5 126.5,148.833 126.5,149.5C 126.44,150.043 126.107,150.376 125.5,150.5C 124.548,148.955 124.215,147.288 124.5,145.5C 127.167,145.5 129.833,145.5 132.5,145.5 Z"/></g>
<g><path style="opacity:0.996" fill="#1c181d" d="M 62.5,150.5 C 61.8333,150.5 61.1667,150.5 60.5,150.5C 59.9779,148.781 58.9779,147.448 57.5,146.5C 57.5654,146.062 57.3988,145.728 57,145.5C 56.7216,146.416 56.2216,147.082 55.5,147.5C 55.3838,144.09 57.0504,142.756 60.5,143.5C 60.8782,145.921 61.5448,148.254 62.5,150.5 Z"/></g>
<g><path style="opacity:0.184" fill="#3a363b" d="M 132.5,144.5 C 129.5,144.5 126.5,144.5 123.5,144.5C 123.5,146.5 123.5,148.5 123.5,150.5C 122.833,150.5 122.5,150.167 122.5,149.5C 120.915,146.366 121.749,144.033 125,142.5C 127.607,143.123 130.107,143.79 132.5,144.5 Z"/></g>
<g><path style="opacity:0.2" fill="#434245" d="M 159.5,143.5 C 159.172,148.875 159.505,154.208 160.5,159.5C 161.183,159.137 161.85,158.804 162.5,158.5C 162.316,161.173 161.149,161.84 159,160.5C 158.68,155.977 158.18,151.477 157.5,147C 157.387,145.301 158.053,144.134 159.5,143.5 Z"/></g>
<g><path style="opacity:0.224" fill="#3c393a" d="M 104.5,143.5 C 104.5,143.833 104.5,144.167 104.5,144.5C 105.919,145.451 107.585,145.784 109.5,145.5C 108.897,150.619 109.564,155.285 111.5,159.5C 110.992,161.233 110.159,161.566 109,160.5C 108.788,157.242 108.288,154.076 107.5,151C 108.214,149.657 107.88,148.324 106.5,147C 104.956,146.71 103.623,146.044 102.5,145C 103.044,144.283 103.711,143.783 104.5,143.5 Z"/></g>
<g><path style="opacity:0.879" fill="#242123" d="M 127.5,148.5 C 128.222,148.918 128.722,149.584 129,150.5C 130.68,149.397 132.18,149.73 133.5,151.5C 130.896,153.03 128.229,154.363 125.5,155.5C 124.833,155.167 124.167,154.833 123.5,154.5C 123.5,154.167 123.5,153.833 123.5,153.5C 124.708,152.766 126.041,152.433 127.5,152.5C 127.5,151.5 127.5,150.5 127.5,149.5C 127.5,149.167 127.5,148.833 127.5,148.5 Z"/></g>
<g><path style="opacity:0.966" fill="#211f21" d="M 20.5,160.5 C 19.0639,159.571 17.7305,158.405 16.5,157C 17.4491,156.383 18.2825,156.549 19,157.5C 19.4643,156.906 19.631,156.239 19.5,155.5C 20.4584,155.953 21.2917,156.619 22,157.5C 23,156.167 24,156.167 25,157.5C 25.7805,156.056 25.6139,154.723 24.5,153.5C 23.8333,153.833 23.1667,154.167 22.5,154.5C 22.891,153.282 22.2244,152.448 20.5,152C 22.9803,151.04 25.4803,150.207 28,149.5C 28.3333,150.167 28.6667,150.833 29,151.5C 29.2882,154.53 29.4549,157.364 29.5,160C 26.964,160.339 24.464,160.839 22,161.5C 21.2352,161.43 20.7352,161.097 20.5,160.5 Z"/></g>
<g><path style="opacity:0.563" fill="#302a2e" d="M 37.5,143.5 C 37.8205,148.695 37.4872,153.695 36.5,158.5C 35.4703,154.678 35.4703,151.012 36.5,147.5C 36.0233,146.522 35.3567,145.689 34.5,145C 35.6667,144.5 36.5,143.667 37,142.5C 37.3988,142.728 37.5654,143.062 37.5,143.5 Z"/></g>
<g><path style="opacity:0.027" fill="#494648" d="M 87.5,146.5 C 87.8333,146.5 88.1667,146.5 88.5,146.5C 88.3505,147.552 88.5172,148.552 89,149.5C 91.0709,151.437 93.2375,153.104 95.5,154.5C 95.5,154.833 95.5,155.167 95.5,155.5C 91.8201,154.321 88.8201,152.154 86.5,149C 87.2524,148.329 87.5858,147.496 87.5,146.5 Z"/></g>
<g><path style="opacity:0.961" fill="#201d20" d="M 88.5,146.5 C 89.1667,146.833 89.8333,147.167 90.5,147.5C 90.5,149.5 91.5,150.5 93.5,150.5C 99.1319,151.925 100.465,155.092 97.5,160C 96.0544,161.298 94.7211,161.465 93.5,160.5C 94.7206,159.972 95.8873,159.305 97,158.5C 97.6917,157.563 97.525,156.897 96.5,156.5C 96.6716,155.508 96.3382,154.842 95.5,154.5C 93.2375,153.104 91.0709,151.437 89,149.5C 88.5172,148.552 88.3505,147.552 88.5,146.5 Z"/></g>
<g><path style="opacity:0.908" fill="#0b0408" d="M 132.5,144.5 C 133.833,144.833 133.833,145.167 132.5,145.5C 129.833,145.5 127.167,145.5 124.5,145.5C 124.215,147.288 124.548,148.955 125.5,150.5C 126.107,150.376 126.44,150.043 126.5,149.5C 126.833,149.5 127.167,149.5 127.5,149.5C 127.5,150.5 127.5,151.5 127.5,152.5C 126.041,152.433 124.708,152.766 123.5,153.5C 123.5,152.5 123.5,151.5 123.5,150.5C 123.5,148.5 123.5,146.5 123.5,144.5C 126.5,144.5 129.5,144.5 132.5,144.5 Z"/></g>
<g><path style="opacity:0.286" fill="#443b41" d="M 57.5,146.5 C 58.9779,147.448 59.9779,148.781 60.5,150.5C 60.7148,152.179 60.0481,153.179 58.5,153.5C 56.5992,153.754 55.9326,153.42 56.5,152.5C 57.1667,152.5 57.5,152.167 57.5,151.5C 58.8333,150.833 58.8333,150.167 57.5,149.5C 57.5,148.5 57.5,147.5 57.5,146.5 Z"/></g>
<g><path style="opacity:0.161" fill="#3a373a" d="M 122.5,149.5 C 122.5,150.167 122.833,150.5 123.5,150.5C 123.5,151.5 123.5,152.5 123.5,153.5C 123.5,153.833 123.5,154.167 123.5,154.5C 123.5,156.167 123.5,157.833 123.5,159.5C 126.518,159.665 129.518,159.498 132.5,159C 129.639,159.03 127.305,158.197 125.5,156.5C 127.98,156.444 130.646,156.778 133.5,157.5C 133.539,159.359 132.706,160.692 131,161.5C 128.281,160.556 125.448,160.223 122.5,160.5C 122.194,156.611 122.194,152.945 122.5,149.5 Z"/></g>
<g><path style="opacity:0.992" fill="#191618" d="M 57.5,146.5 C 57.5,147.5 57.5,148.5 57.5,149.5C 57.5,150.167 57.5,150.833 57.5,151.5C 56.8333,151.5 56.5,151.833 56.5,152.5C 55.9326,153.42 56.5992,153.754 58.5,153.5C 59.2625,154.268 60.2625,154.768 61.5,155C 62.2524,155.671 62.5858,156.504 62.5,157.5C 60.6889,156.178 58.6889,155.678 56.5,156C 54.8934,157.049 54.2267,158.549 54.5,160.5C 53.1667,160.5 51.8333,160.5 50.5,160.5C 51.4116,155.834 53.0783,151.5 55.5,147.5C 56.2216,147.082 56.7216,146.416 57,145.5C 57.3988,145.728 57.5654,146.062 57.5,146.5 Z"/></g>
<g><path style="opacity:0.958" fill="#110e12" d="M 60.5,150.5 C 61.1667,150.5 61.8333,150.5 62.5,150.5C 63.9851,152.249 64.9851,154.249 65.5,156.5C 65.33,157.822 65.6634,158.989 66.5,160C 63.691,162.056 62.3577,161.223 62.5,157.5C 62.5858,156.504 62.2524,155.671 61.5,155C 60.2625,154.768 59.2625,154.268 58.5,153.5C 60.0481,153.179 60.7148,152.179 60.5,150.5 Z"/></g>
<g><path style="opacity:0.974" fill="#262225" d="M 76.5,150.5 C 81.4121,151.496 83.0787,154.33 81.5,159C 80.255,159.791 78.9217,160.291 77.5,160.5C 75.643,158.155 73.3096,157.822 70.5,159.5C 69.2625,158.257 69.5959,157.257 71.5,156.5C 74.2163,158.086 76.5497,157.753 78.5,155.5C 77.0986,154.479 75.7653,153.479 74.5,152.5C 75.8333,152.5 76.5,151.833 76.5,150.5 Z"/></g>
<g><path style="opacity:0.947" fill="#040104" d="M 123.5,154.5 C 124.167,154.833 124.833,155.167 125.5,155.5C 125.5,155.833 125.5,156.167 125.5,156.5C 127.305,158.197 129.639,159.03 132.5,159C 129.518,159.498 126.518,159.665 123.5,159.5C 123.5,157.833 123.5,156.167 123.5,154.5 Z"/></g>
<g><path style="opacity:0.031" fill="#605c5f" d="M 143.5,150.5 C 142.513,153.246 143.347,155.579 146,157.5C 147.996,156.659 149.829,156.992 151.5,158.5C 145.636,160.045 142.302,157.879 141.5,152C 141.324,149.641 141.991,149.141 143.5,150.5 Z"/></g>
<g><path style="opacity:0.271" fill="#555154" d="M 171.5,143.5 C 172.289,143.783 172.956,144.283 173.5,145C 172.899,147.961 172.899,151.461 173.5,155.5C 172.965,157.661 172.132,159.661 171,161.5C 170.167,160.667 169.333,159.833 168.5,159C 168.728,158.601 169.062,158.435 169.5,158.5C 170.117,158.611 170.617,158.944 171,159.5C 171.499,154.177 171.666,148.844 171.5,143.5 Z"/></g>
<g><path style="opacity:0.996" fill="#2c292b" d="M 16.5,146.5 C 16.179,147.817 15.8457,149.151 15.5,150.5C 15.4534,152.038 16.1201,153.038 17.5,153.5C 18.1667,154.167 18.8333,154.833 19.5,155.5C 19.631,156.239 19.4643,156.906 19,157.5C 18.2825,156.549 17.4491,156.383 16.5,157C 17.7305,158.405 19.0639,159.571 20.5,160.5C 18.6096,160.703 17.1096,160.037 16,158.5C 13.1928,154.372 13.3594,150.372 16.5,146.5 Z"/></g>
<g><path style="opacity:0.529" fill="#352f32" d="M 38.5,143.5 C 39.7773,144.694 40.4439,146.36 40.5,148.5C 40.2432,151.618 39.9099,154.452 39.5,157C 41.8098,157.497 44.1432,157.663 46.5,157.5C 46.6882,159.103 46.1882,160.437 45,161.5C 42.0614,160.872 39.2281,160.205 36.5,159.5C 39.5184,159.665 42.5184,159.498 45.5,159C 43.1902,158.503 40.8568,158.337 38.5,158.5C 38.5,153.5 38.5,148.5 38.5,143.5 Z"/></g>
<g><path style="opacity:0.008" fill="#000000" d="M 65.5,155.5 C 66.8333,156.167 66.8333,156.167 65.5,155.5 Z"/></g>
<g><path style="opacity:0.271" fill="#555357" d="M 95.5,154.5 C 96.3382,154.842 96.6716,155.508 96.5,156.5C 96.3893,157.117 96.056,157.617 95.5,158C 93.1667,158.333 90.8333,158.667 88.5,159C 89.2438,160.039 90.2438,160.539 91.5,160.5C 89.544,161.801 87.8774,161.301 86.5,159C 87.8216,156.311 89.655,155.811 92,157.5C 93.6991,157.613 94.8658,156.947 95.5,155.5C 95.5,155.167 95.5,154.833 95.5,154.5 Z"/></g>
<g><path style="opacity:0.945" fill="#060204" d="M 37.5,143.5 C 37.8333,143.5 38.1667,143.5 38.5,143.5C 38.5,148.5 38.5,153.5 38.5,158.5C 40.8568,158.337 43.1902,158.503 45.5,159C 42.5184,159.498 39.5184,159.665 36.5,159.5C 35.1667,159.167 35.1667,158.833 36.5,158.5C 37.4872,153.695 37.8205,148.695 37.5,143.5 Z"/></g>
<g><path style="opacity:0.98" fill="#100d12" d="M 96.5,156.5 C 97.525,156.897 97.6917,157.563 97,158.5C 95.8873,159.305 94.7206,159.972 93.5,160.5C 92.8333,160.5 92.1667,160.5 91.5,160.5C 90.2438,160.539 89.2438,160.039 88.5,159C 90.8333,158.667 93.1667,158.333 95.5,158C 96.056,157.617 96.3893,157.117 96.5,156.5 Z"/></g>
<g><path style="opacity:0.651" fill="#0d0a0d" d="M 77.5,160.5 C 76.3702,160.469 75.0369,160.802 73.5,161.5C 72.2613,161.058 71.2613,160.391 70.5,159.5C 73.3096,157.822 75.643,158.155 77.5,160.5 Z"/></g>
<g><path style="opacity:0.412" fill="#6e6c71" d="M 95.5,170.5 C 95.6716,169.508 95.3382,168.842 94.5,168.5C 92.9007,166.271 90.9007,165.938 88.5,167.5C 88.5654,167.062 88.3988,166.728 88,166.5C 87.7216,167.416 87.2216,168.082 86.5,168.5C 86.5,167.833 86.1667,167.5 85.5,167.5C 88.9575,163.58 92.4575,163.58 96,167.5C 96.7401,168.749 96.5735,169.749 95.5,170.5 Z"/></g>
<g><path style="opacity:0.394" fill="#9e9ca0" d="M 94.5,168.5 C 94.0679,169.71 93.4013,170.71 92.5,171.5C 92.5743,167.839 91.5743,167.172 89.5,169.5C 89.6236,170.107 89.9569,170.44 90.5,170.5C 90.5,171.167 90.8333,171.5 91.5,171.5C 91.2172,172.289 90.7172,172.956 90,173.5C 88.872,171.655 88.372,169.655 88.5,167.5C 90.9007,165.938 92.9007,166.271 94.5,168.5 Z M 92.5,171.5 C 92.1667,171.5 91.8333,171.5 91.5,171.5C 90.8333,171.5 90.5,171.167 90.5,170.5C 89.9569,170.44 89.6236,170.107 89.5,169.5C 91.5743,167.172 92.5743,167.839 92.5,171.5 Z"/></g>
<g><path style="opacity:0.627" fill="#d2cfd4" d="M 26.5,173.5 C 26.5,173.833 26.5,174.167 26.5,174.5C 25.7656,175.878 25.0989,177.378 24.5,179C 22.5,179.667 20.5,180.333 18.5,181C 19.0944,181.464 19.7611,181.631 20.5,181.5C 19.1155,182.801 17.6155,182.801 16,181.5C 15.3333,178.833 15.3333,176.167 16,173.5C 17.3876,172.446 18.8876,172.28 20.5,173C 22.1544,174.827 22.9877,176.66 23,178.5C 23.5494,176.24 24.716,174.574 26.5,173.5 Z"/></g>
<g><path style="opacity:0.476" fill="#c0bfc1" d="M 58.5,179.5 C 58.1667,179.5 57.8333,179.5 57.5,179.5C 56.3473,178.687 56.3473,177.687 57.5,176.5C 55.9547,175.548 54.288,175.215 52.5,175.5C 53.495,172.408 55.495,171.741 58.5,173.5C 59.6942,175.516 59.6942,177.516 58.5,179.5 Z"/></g>
<g><path style="opacity:0.608" fill="#8c898d" d="M 85.5,167.5 C 86.1667,167.5 86.5,167.833 86.5,168.5C 86.9595,171.877 87.6261,175.211 88.5,178.5C 88.1667,178.5 87.8333,178.5 87.5,178.5C 87.19,177.262 86.69,177.262 86,178.5C 85.51,179.793 85.3433,181.127 85.5,182.5C 83.1861,181.821 82.8528,180.488 84.5,178.5C 84.0431,177.702 83.3764,177.369 82.5,177.5C 83.343,175.827 84.6763,174.66 86.5,174C 84.925,171.856 84.5916,169.689 85.5,167.5 Z"/></g>
<g><path style="opacity:0.318" fill="#99979d" d="M 95.5,171.5 C 97.0098,172.728 98.5098,172.728 100,171.5C 101.205,172.071 102.372,172.738 103.5,173.5C 103.376,174.107 103.043,174.44 102.5,174.5C 101.054,173.387 99.3869,173.22 97.5,174C 98.8825,175.461 98.5492,176.294 96.5,176.5C 94.8907,172.832 93.5574,172.832 92.5,176.5C 91.7109,176.217 91.0442,175.717 90.5,175C 91.8463,173.331 93.513,172.164 95.5,171.5 Z"/></g>
<g><path style="opacity:0.953" fill="#737077" d="M 102.5,174.5 C 100.14,175.865 98.4735,177.865 97.5,180.5C 96.6618,180.158 96.3284,179.492 96.5,178.5C 96.5,177.833 96.5,177.167 96.5,176.5C 98.5492,176.294 98.8825,175.461 97.5,174C 99.3869,173.22 101.054,173.387 102.5,174.5 Z"/></g>
<g><path style="opacity:0.733" fill="#bebbc0" d="M 170.5,173.5 C 170.5,174.167 170.167,174.5 169.5,174.5C 168.5,174.5 167.5,174.5 166.5,174.5C 166.216,176.415 166.549,178.081 167.5,179.5C 167.5,179.833 167.5,180.167 167.5,180.5C 166.833,180.5 166.167,180.5 165.5,180.5C 165.149,178.131 164.982,175.797 165,173.5C 166.943,172.193 168.777,172.193 170.5,173.5 Z"/></g>
<g><path style="opacity:0.475" fill="#b7b3b7" d="M 31.5,179.5 C 32.1667,180.167 32.8333,180.833 33.5,181.5C 31.965,182.354 30.6316,182.354 29.5,181.5C 29.2455,178.771 28.2455,176.438 26.5,174.5C 26.5,174.167 26.5,173.833 26.5,173.5C 26.56,172.957 26.8933,172.624 27.5,172.5C 30.0428,174.575 31.3762,176.909 31.5,179.5 Z"/></g>
<g><path style="opacity:0.688" fill="#bbb9bd" d="M 49.5,178.5 C 49.631,179.239 49.4643,179.906 49,180.5C 47.3845,179.199 45.8845,179.199 44.5,180.5C 44.6068,182.379 44.1068,182.712 43,181.5C 43.379,179.925 43.2123,178.425 42.5,177C 43.8915,174.772 45.8915,173.606 48.5,173.5C 48.6287,175.216 48.962,176.883 49.5,178.5 Z"/></g>
<g><path style="opacity:0.435" fill="#e1dee2" d="M 52.5,175.5 C 54.288,175.215 55.9547,175.548 57.5,176.5C 56.3473,177.687 56.3473,178.687 57.5,179.5C 56.791,180.404 55.791,180.737 54.5,180.5C 54.8795,177.433 53.8795,176.433 51.5,177.5C 51.3284,176.508 51.6618,175.842 52.5,175.5 Z"/></g>
<g><path style="opacity:0.89" fill="#656368" d="M 88.5,167.5 C 88.372,169.655 88.872,171.655 90,173.5C 90.7172,172.956 91.2172,172.289 91.5,171.5C 91.8333,171.5 92.1667,171.5 92.5,171.5C 93.4013,170.71 94.0679,169.71 94.5,168.5C 95.3382,168.842 95.6716,169.508 95.5,170.5C 95.5,170.833 95.5,171.167 95.5,171.5C 93.513,172.164 91.8463,173.331 90.5,175C 91.0442,175.717 91.7109,176.217 92.5,176.5C 92.5,176.833 92.5,177.167 92.5,177.5C 92.5,178.167 92.5,178.833 92.5,179.5C 91.2502,179.423 90.4169,178.756 90,177.5C 89.6174,178.056 89.1174,178.389 88.5,178.5C 87.6261,175.211 86.9595,171.877 86.5,168.5C 87.2216,168.082 87.7216,167.416 88,166.5C 88.3988,166.728 88.5654,167.062 88.5,167.5 Z"/></g>
<g><path style="opacity:0.627" fill="#c2bec4" d="M 148.5,179.5 C 150.185,178.816 151.185,177.483 151.5,175.5C 151.376,174.893 151.043,174.56 150.5,174.5C 153.779,171.914 154.946,172.914 154,177.5C 152.66,178.868 151.326,180.201 150,181.5C 148.97,181.164 148.47,180.497 148.5,179.5 Z"/></g>
<g><path style="opacity:0.373" fill="#e0dde2" d="M 169.5,174.5 C 170.686,175.961 170.686,177.295 169.5,178.5C 169.167,177.167 168.833,177.167 168.5,178.5C 168.5,179.167 168.167,179.5 167.5,179.5C 166.549,178.081 166.216,176.415 166.5,174.5C 167.5,174.5 168.5,174.5 169.5,174.5 Z"/></g>
<g><path style="opacity:0.62" fill="#cccacf" d="M 170.5,173.5 C 174.562,177.149 173.895,180.149 168.5,182.5C 167.893,182.376 167.56,182.043 167.5,181.5C 167.5,181.167 167.5,180.833 167.5,180.5C 167.5,180.167 167.5,179.833 167.5,179.5C 168.167,179.5 168.5,179.167 168.5,178.5C 168.833,178.5 169.167,178.5 169.5,178.5C 170.686,177.295 170.686,175.961 169.5,174.5C 170.167,174.5 170.5,174.167 170.5,173.5 Z"/></g>
<g><path style="opacity:0.729" fill="#cecacf" d="M 138.5,172.5 C 141.325,172.081 143.491,173.081 145,175.5C 146.125,172.058 147.958,171.725 150.5,174.5C 151.043,174.56 151.376,174.893 151.5,175.5C 151.185,177.483 150.185,178.816 148.5,179.5C 147.288,178.77 146.288,177.77 145.5,176.5C 144.818,177.243 144.151,177.909 143.5,178.5C 143.754,176.599 143.42,175.933 142.5,176.5C 140.801,176.527 139.467,177.194 138.5,178.5C 137.709,176.691 137.709,174.691 138.5,172.5 Z"/></g>
<g><path style="opacity:0.416" fill="#c2c0c4" d="M 165.5,180.5 C 166.167,180.5 166.833,180.5 167.5,180.5C 167.5,180.833 167.5,181.167 167.5,181.5C 164.117,181.743 160.951,181.076 158,179.5C 155.92,182.284 155.253,181.951 156,178.5C 156.712,176.153 157.879,174.153 159.5,172.5C 161.684,175.148 163.684,177.814 165.5,180.5 Z"/></g>
<g><path style="opacity:0.735" fill="#cbc4cb" d="M 26.5,174.5 C 28.2455,176.438 29.2455,178.771 29.5,181.5C 26.1663,182.161 23.1663,182.161 20.5,181.5C 19.7611,181.631 19.0944,181.464 18.5,181C 20.5,180.333 22.5,179.667 24.5,179C 25.0989,177.378 25.7656,175.878 26.5,174.5 Z"/></g>
<g><path style="opacity:0.446" fill="#b5b1b5" d="M 138.5,172.5 C 137.709,174.691 137.709,176.691 138.5,178.5C 138.56,179.043 138.893,179.376 139.5,179.5C 141.213,179.121 142.213,178.121 142.5,176.5C 143.42,175.933 143.754,176.599 143.5,178.5C 142.024,182.412 139.69,183.079 136.5,180.5C 134.771,177.127 135.437,174.46 138.5,172.5 Z M 142.5,176.5 C 142.213,178.121 141.213,179.121 139.5,179.5C 138.893,179.376 138.56,179.043 138.5,178.5C 139.467,177.194 140.801,176.527 142.5,176.5 Z"/></g>
<g><path style="opacity:0.043" fill="#ceccce" d="M 37.5,175.5 C 38.2389,175.369 38.9056,175.536 39.5,176C 38.2889,177.113 38.2889,178.28 39.5,179.5C 38.7997,179.787 38.1331,180.12 37.5,180.5C 36.5178,181.141 35.5178,181.807 34.5,182.5C 33.8933,182.376 33.56,182.043 33.5,181.5C 32.8333,180.833 32.1667,180.167 31.5,179.5C 32.224,177.782 32.8906,175.948 33.5,174C 35.0657,173.7 36.399,174.2 37.5,175.5 Z"/></g>
<g><path style="opacity:0.413" fill="#bfbdc0" d="M 57.5,179.5 C 57.8333,179.5 58.1667,179.5 58.5,179.5C 59.0431,179.56 59.3764,179.893 59.5,180.5C 58.6667,180.833 57.8333,181.167 57,181.5C 55.2652,182.226 53.7652,182.226 52.5,181.5C 54.129,179.804 53.7957,178.804 51.5,178.5C 51.5,178.167 51.5,177.833 51.5,177.5C 53.8795,176.433 54.8795,177.433 54.5,180.5C 55.791,180.737 56.791,180.404 57.5,179.5 Z"/></g>
<g><path style="opacity:0.753" fill="#89868c" d="M 92.5,177.5 C 93.7046,179.138 95.0379,179.471 96.5,178.5C 96.3284,179.492 96.6618,180.158 97.5,180.5C 98.8333,181.5 98.8333,182.5 97.5,183.5C 96.5084,183.672 95.8417,183.338 95.5,182.5C 94.5,181.5 93.5,180.5 92.5,179.5C 92.5,178.833 92.5,178.167 92.5,177.5 Z"/></g>
<g><path style="opacity:0.439" fill="#c4c1c5" d="M 37.5,180.5 C 38.1331,180.12 38.7997,179.787 39.5,179.5C 38.2889,178.28 38.2889,177.113 39.5,176C 38.9056,175.536 38.2389,175.369 37.5,175.5C 37.811,174.522 38.4777,173.855 39.5,173.5C 41.9641,176.68 41.9641,179.68 39.5,182.5C 38.4777,182.145 37.811,181.478 37.5,180.5 Z"/></g>
<g><path style="opacity:0.396" fill="#c6c5ca" d="M 49.5,178.5 C 50.2216,178.918 50.7216,179.584 51,180.5C 51.4643,179.906 51.631,179.239 51.5,178.5C 53.7957,178.804 54.129,179.804 52.5,181.5C 51.4168,181.539 50.4168,181.873 49.5,182.5C 48.0098,180.624 46.3431,179.957 44.5,180.5C 45.8845,179.199 47.3845,179.199 49,180.5C 49.4643,179.906 49.631,179.239 49.5,178.5 Z"/></g>
<g><path style="opacity:1" fill="#656268" d="M 92.5,179.5 C 93.5,180.5 94.5,181.5 95.5,182.5C 93.3023,182.409 92.9689,183.075 94.5,184.5C 92.8333,183.167 91.1667,181.833 89.5,180.5C 88.8333,179.833 88.1667,179.167 87.5,178.5C 87.8333,178.5 88.1667,178.5 88.5,178.5C 89.1174,178.389 89.6174,178.056 90,177.5C 90.4169,178.756 91.2502,179.423 92.5,179.5 Z"/></g>
<g><path style="opacity:0.943" fill="#69646b" d="M 82.5,177.5 C 83.3764,177.369 84.0431,177.702 84.5,178.5C 82.8528,180.488 83.1861,181.821 85.5,182.5C 85.5,183.167 85.5,183.833 85.5,184.5C 86.5511,185.222 87.2178,186.222 87.5,187.5C 86.8333,188.833 86.1667,188.833 85.5,187.5C 81.4268,185.227 80.4268,181.894 82.5,177.5 Z"/></g>
<g><path style="opacity:0.137" fill="#888589" d="M 82.5,177.5 C 80.4268,181.894 81.4268,185.227 85.5,187.5C 84.8826,187.611 84.3826,187.944 84,188.5C 82.1217,186.957 80.6217,185.124 79.5,183C 79.9892,180.791 80.9892,178.958 82.5,177.5 Z"/></g>
<g><path style="opacity:0.741" fill="#939296" d="M 95.5,186.5 C 97.6804,187.855 99.6804,187.689 101.5,186C 100.584,185.722 99.9175,185.222 99.5,184.5C 105.024,183.01 105.691,184.177 101.5,188C 99.0106,188.941 97.0106,188.441 95.5,186.5 Z"/></g>
<g><path style="opacity:0.753" fill="#878388" d="M 89.5,180.5 C 91.1667,181.833 92.8333,183.167 94.5,184.5C 94.8333,185.167 95.1667,185.833 95.5,186.5C 92.8728,187.092 90.2062,187.425 87.5,187.5C 87.2178,186.222 86.5511,185.222 85.5,184.5C 89.8333,186.167 91.1667,184.833 89.5,180.5 Z"/></g>
<g><path style="opacity:0.765" fill="#69676d" d="M 95.5,182.5 C 95.8417,183.338 96.5084,183.672 97.5,183.5C 98.1667,183.833 98.8333,184.167 99.5,184.5C 99.9175,185.222 100.584,185.722 101.5,186C 99.6804,187.689 97.6804,187.855 95.5,186.5C 95.1667,185.833 94.8333,185.167 94.5,184.5C 92.9689,183.075 93.3023,182.409 95.5,182.5 Z"/></g>
<g><path style="opacity:0.857" fill="#0d0c0d" d="M 34.5,209.5 C 37.4495,207.944 40.1162,208.278 42.5,210.5C 42.2907,211.086 41.9574,211.586 41.5,212C 39.0336,211.93 36.7003,212.096 34.5,212.5C 32.9623,212.547 31.9623,211.88 31.5,210.5C 32.3261,205.684 32.8261,200.684 33,195.5C 33.1745,200.351 33.6745,205.018 34.5,209.5 Z"/></g>
<g><path style="opacity:0.972" fill="#171313" d="M 77.5,202.5 C 76.8333,202.5 76.5,202.833 76.5,203.5C 75.7784,203.918 75.2784,204.584 75,205.5C 74.6174,204.944 74.1174,204.611 73.5,204.5C 73.1667,204.5 72.8333,204.5 72.5,204.5C 72.5,204.167 72.5,203.833 72.5,203.5C 72.5,202.833 72.5,202.167 72.5,201.5C 72.5,200.833 72.1667,200.5 71.5,200.5C 70.4863,199.326 69.153,198.66 67.5,198.5C 68.5981,197.603 68.5981,196.77 67.5,196C 68.6667,195.5 69.5,194.667 70,193.5C 71.0113,194.337 72.1779,194.67 73.5,194.5C 73.2965,196.39 73.9632,197.89 75.5,199C 75.1667,199.333 74.8333,199.667 74.5,200C 75.5707,200.852 76.5707,201.685 77.5,202.5 Z"/></g>
<g><path style="opacity:0.975" fill="#131212" d="M 82.5,207.5 C 83.2341,206.292 83.5674,204.959 83.5,203.5C 83.5,202.833 83.5,202.167 83.5,201.5C 83.5394,200.417 83.8728,199.417 84.5,198.5C 84.1667,198.167 83.8333,197.833 83.5,197.5C 82.2624,201.311 81.5958,201.311 81.5,197.5C 81.999,194.611 83.499,193.944 86,195.5C 86.2069,199.089 86.7069,202.589 87.5,206C 87.05,208.501 86.05,210.667 84.5,212.5C 82.7826,211.332 82.1159,209.665 82.5,207.5 Z"/></g>
<g><path style="opacity:0.996" fill="#28262b" d="M 97.5,198.5 C 96.8333,197.833 96.1667,197.167 95.5,196.5C 94.8333,196.5 94.1667,196.5 93.5,196.5C 92.2875,195.503 92.4542,194.503 94,193.5C 96.2798,194.086 98.4465,194.92 100.5,196C 99.6266,197.045 98.6266,197.878 97.5,198.5 Z"/></g>
<g><path style="opacity:0.863" fill="#191719" d="M 111.5,198.5 C 110.89,199.391 110.557,200.391 110.5,201.5C 110.167,201.5 109.833,201.5 109.5,201.5C 109.5,201.167 109.5,200.833 109.5,200.5C 108.402,199.603 108.402,198.77 109.5,198C 108.552,197.517 107.552,197.351 106.5,197.5C 105.59,195.499 106.423,194.165 109,193.5C 109.847,195.193 110.68,196.86 111.5,198.5 Z"/></g>
<g><path style="opacity:0.853" fill="#070305" d="M 117.5,195.5 C 119.446,200.396 120.113,205.729 119.5,211.5C 118.5,211.5 117.5,211.5 116.5,211.5C 116.5,211.167 116.5,210.833 116.5,210.5C 116.577,209.25 117.244,208.417 118.5,208C 117.944,207.617 117.611,207.117 117.5,206.5C 117.672,205.508 117.338,204.842 116.5,204.5C 116.5,204.167 116.5,203.833 116.5,203.5C 117.833,203.167 117.833,202.833 116.5,202.5C 117.405,201.298 117.405,199.964 116.5,198.5C 117.04,197.439 117.374,196.439 117.5,195.5 Z"/></g>
<g><path style="opacity:0.22" fill="#3c3a3d" d="M 133.5,195.5 C 131.473,195.338 129.473,195.505 127.5,196C 128.738,196.69 128.738,197.19 127.5,197.5C 125.03,196.64 124.863,195.306 127,193.5C 128.525,193.888 130.192,193.888 132,193.5C 132.717,194.044 133.217,194.711 133.5,195.5 Z"/></g>
<g><path style="opacity:0.942" fill="#181618" d="M 143.5,208.5 C 142.033,205.742 141.367,206.075 141.5,209.5C 139.957,205.914 138.957,202.08 138.5,198C 139.313,196.197 140.48,194.697 142,193.5C 142.5,193.667 143,193.833 143.5,194C 143.391,198.622 143.391,203.455 143.5,208.5 Z"/></g>
<g><path style="opacity:0.966" fill="#050404" d="M 152.5,209.5 C 152.5,210.167 152.167,210.5 151.5,210.5C 150.504,210.414 149.671,210.748 149,211.5C 148.536,210.906 148.369,210.239 148.5,209.5C 149.75,209.423 150.583,208.756 151,207.5C 151.333,203.5 151.667,199.5 152,195.5C 152.499,200.155 152.666,204.821 152.5,209.5 Z"/></g>
<g><path style="opacity:0.996" fill="#131215" d="M 52.5,209.5 C 51.3684,210.354 50.035,210.354 48.5,209.5C 47.3852,204.25 47.2185,198.917 48,193.5C 51.2615,195.042 52.0949,197.709 50.5,201.5C 50.3845,204.409 51.0512,207.075 52.5,209.5 Z"/></g>
<g><path style="opacity:0.125" fill="#242426" d="M 60.5,208.5 C 60.5,208.167 60.5,207.833 60.5,207.5C 61.0894,203.029 60.4228,199.029 58.5,195.5C 58.3894,193.352 59.056,193.019 60.5,194.5C 61.2036,197.704 61.8702,200.871 62.5,204C 61.9011,205.622 61.2344,207.122 60.5,208.5 Z"/></g>
<g><path style="opacity:0.02" fill="#323332" d="M 57.5,198.5 C 56.8333,197.167 56.8333,197.167 57.5,198.5 Z"/></g>
<g><path style="opacity:0.869" fill="#150f15" d="M 106.5,197.5 C 107.552,197.351 108.552,197.517 109.5,198C 108.402,198.77 108.402,199.603 109.5,200.5C 108.167,200.833 108.167,201.167 109.5,201.5C 109.328,202.492 109.662,203.158 110.5,203.5C 110.014,205.807 110.014,207.973 110.5,210C 109.956,210.717 109.289,211.217 108.5,211.5C 108.662,209.473 108.495,207.473 108,205.5C 107.617,204.944 107.117,204.611 106.5,204.5C 106.285,201.856 106.285,199.523 106.5,197.5 Z"/></g>
<g><path style="opacity:0.012" fill="#000000" d="M 116.5,198.5 C 115.833,197.167 115.833,197.167 116.5,198.5 Z"/></g>
<g><path style="opacity:0.97" fill="#110f10" d="M 133.5,210.5 C 133.938,210.435 134.272,210.601 134.5,211C 131.431,212.91 128.431,212.91 125.5,211C 126.571,210.148 127.571,209.315 128.5,208.5C 129.324,204.688 129.824,200.688 130,196.5C 130.499,201.155 130.666,205.821 130.5,210.5C 131.5,210.5 132.5,210.5 133.5,210.5 Z"/></g>
<g><path style="opacity:0.953" fill="#211d20" d="M 20.5,198.5 C 19.5655,199.568 19.2322,200.901 19.5,202.5C 20.404,203.209 20.7373,204.209 20.5,205.5C 15.7405,205.473 14.7405,203.807 17.5,200.5C 18.8333,200.167 18.8333,199.833 17.5,199.5C 18.9011,194.625 18.2344,194.292 15.5,198.5C 15.147,196.365 15.9803,195.032 18,194.5C 19.2737,195.535 20.4404,196.702 21.5,198C 21.2716,198.399 20.9382,198.565 20.5,198.5 Z M 19.5,202.5 C 18.9232,203.773 18.2565,203.773 17.5,202.5C 17.9698,201.537 18.6365,201.537 19.5,202.5 Z"/></g>
<g><path style="opacity:0.919" fill="#110d0e" d="M 165.5,195.5 C 166.458,197.302 167.125,199.302 167.5,201.5C 167.263,202.791 167.596,203.791 168.5,204.5C 168.421,205.93 168.754,207.264 169.5,208.5C 169.043,209.298 168.376,209.631 167.5,209.5C 166.833,209.5 166.5,209.167 166.5,208.5C 167.833,208.167 167.833,207.833 166.5,207.5C 165.833,207.5 165.5,207.167 165.5,206.5C 166.167,206.5 166.5,206.167 166.5,205.5C 165.939,202.147 164.605,199.147 162.5,196.5C 163.325,195.614 164.325,195.281 165.5,195.5 Z"/></g>
<g><path style="opacity:0.48" fill="#2c2a2b" d="M 152.5,209.5 C 152.666,204.821 152.499,200.155 152,195.5C 151.667,199.5 151.333,203.5 151,207.5C 150.583,208.756 149.75,209.423 148.5,209.5C 150.652,205.142 150.986,200.642 149.5,196C 150.399,194.764 151.566,193.93 153,193.5C 153.349,194.473 154.182,195.306 155.5,196C 153.904,200.378 152.904,204.878 152.5,209.5 Z"/></g>
<g><path style="opacity:0.945" fill="#251e1f" d="M 81.5,197.5 C 81.5958,201.311 82.2624,201.311 83.5,197.5C 83.8333,197.833 84.1667,198.167 84.5,198.5C 83.8728,199.417 83.5394,200.417 83.5,201.5C 82.1667,202.167 82.1667,202.833 83.5,203.5C 83.5674,204.959 83.2341,206.292 82.5,207.5C 82.1667,207.5 81.8333,207.5 81.5,207.5C 81.5,206.833 81.1667,206.5 80.5,206.5C 80.33,205.178 80.6634,204.011 81.5,203C 80.9056,202.536 80.2389,202.369 79.5,202.5C 79.3893,201.883 79.056,201.383 78.5,201C 79.8141,200.015 80.8141,198.848 81.5,197.5 Z"/></g>
<g><path style="opacity:0.984" fill="#050304" d="M 174.5,195.5 C 175.5,195.5 176.5,195.5 177.5,195.5C 177.5,200.833 177.5,206.167 177.5,211.5C 177.167,212.833 176.833,212.833 176.5,211.5C 176.819,206.637 176.486,201.97 175.5,197.5C 174.662,197.158 174.328,196.492 174.5,195.5 Z"/></g>
<g><path style="opacity:0.953" fill="#141012" d="M 17.5,199.5 C 17.5,199.833 17.5,200.167 17.5,200.5C 14.7405,203.807 15.7405,205.473 20.5,205.5C 19.4324,206.434 18.099,206.768 16.5,206.5C 14.8214,208 13.4881,209.833 12.5,212C 11.5165,212.591 10.8499,212.257 10.5,211C 11.4496,206.859 13.1163,202.692 15.5,198.5C 18.2344,194.292 18.9011,194.625 17.5,199.5 Z"/></g>
<g><path style="opacity:0.882" fill="#0c0809" d="M 67.5,198.5 C 69.153,198.66 70.4863,199.326 71.5,200.5C 72.1667,200.5 72.5,200.833 72.5,201.5C 72.5,202.167 72.5,202.833 72.5,203.5C 71.1667,203.833 71.1667,204.167 72.5,204.5C 72.1667,205.167 71.8333,205.833 71.5,206.5C 70.8826,206.611 70.3826,206.944 70,207.5C 69.7216,206.584 69.2216,205.918 68.5,205.5C 68.702,203.05 68.3686,200.717 67.5,198.5 Z"/></g>
<g><path style="opacity:1" fill="#1f1a1b" d="M 174.5,195.5 C 174.328,196.492 174.662,197.158 175.5,197.5C 174.962,199.117 174.629,200.784 174.5,202.5C 174.5,203.167 174.5,203.833 174.5,204.5C 174.167,204.5 173.833,204.5 173.5,204.5C 173.591,202.302 172.925,201.969 171.5,203.5C 170.209,203.263 169.209,203.596 168.5,204.5C 167.596,203.791 167.263,202.791 167.5,201.5C 168.423,202.303 169.423,202.47 170.5,202C 171.573,200.406 172.573,198.906 173.5,197.5C 172.019,196.056 172.352,195.389 174.5,195.5 Z"/></g>
<g><path style="opacity:0.927" fill="#060609" d="M 58.5,195.5 C 60.4228,199.029 61.0894,203.029 60.5,207.5C 59.5,206.833 58.5,206.167 57.5,205.5C 56.5828,202.84 56.5828,200.506 57.5,198.5C 58.0405,197.439 58.3738,196.439 58.5,195.5 Z"/></g>
<g><path style="opacity:0.716" fill="#19181a" d="M 97.5,199.5 C 97.1532,204.079 97.8198,208.412 99.5,212.5C 98.1667,212.5 96.8333,212.5 95.5,212.5C 96.2625,211.732 97.2625,211.232 98.5,211C 96.9546,209.178 96.288,207.011 96.5,204.5C 96.5068,202.631 96.8401,200.964 97.5,199.5 Z"/></g>
<g><path style="opacity:0.858" fill="#161314" d="M 111.5,198.5 C 112.853,200.183 114.52,201.516 116.5,202.5C 116.5,202.833 116.5,203.167 116.5,203.5C 116.5,203.833 116.5,204.167 116.5,204.5C 115.561,205.327 115.895,205.994 117.5,206.5C 117.611,207.117 117.944,207.617 118.5,208C 117.244,208.417 116.577,209.25 116.5,210.5C 114.5,208.167 112.5,205.833 110.5,203.5C 110.5,202.833 110.5,202.167 110.5,201.5C 110.557,200.391 110.89,199.391 111.5,198.5 Z"/></g>
<g><path style="opacity:0.302" fill="#292828" d="M 93.5,196.5 C 94.1667,196.5 94.8333,196.5 95.5,196.5C 96.0265,201.807 95.3598,206.807 93.5,211.5C 94.6568,206.814 94.6568,201.814 93.5,196.5 Z"/></g>
<g><path style="opacity:0.263" fill="#302b2d" d="M 165.5,195.5 C 164.325,195.281 163.325,195.614 162.5,196.5C 164.605,199.147 165.939,202.147 166.5,205.5C 164.591,204.321 164.258,204.654 165.5,206.5C 165.5,207.167 165.833,207.5 166.5,207.5C 166.5,207.833 166.5,208.167 166.5,208.5C 165.272,209.306 164.272,210.306 163.5,211.5C 164.097,206.706 163.43,202.373 161.5,198.5C 160.6,196.288 161.434,194.621 164,193.5C 164.717,194.044 165.217,194.711 165.5,195.5 Z"/></g>
<g><path style="opacity:0.563" fill="#212122" d="M 34.5,209.5 C 33.6745,205.018 33.1745,200.351 33,195.5C 32.8261,200.684 32.3261,205.684 31.5,210.5C 30.2493,205.502 30.2493,200.169 31.5,194.5C 33.1033,194.312 34.4366,194.812 35.5,196C 34.5333,200.401 34.2,204.901 34.5,209.5 Z"/></g>
<g><path style="opacity:1" fill="#1e161a" d="M 76.5,203.5 C 76.5,204.167 76.8333,204.5 77.5,204.5C 77.5,205.167 77.8333,205.5 78.5,205.5C 77.8333,207.5 77.1667,209.5 76.5,211.5C 75.7784,211.082 75.2784,210.416 75,209.5C 74.6667,209.833 74.3333,210.167 74,210.5C 74.3466,208.39 74.1799,206.39 73.5,204.5C 74.1174,204.611 74.6174,204.944 75,205.5C 75.2784,204.584 75.7784,203.918 76.5,203.5 Z"/></g>
<g><path style="opacity:1" fill="#141011" d="M 77.5,202.5 C 78.1667,202.5 78.8333,202.5 79.5,202.5C 80.2389,202.369 80.9056,202.536 81.5,203C 80.6634,204.011 80.33,205.178 80.5,206.5C 81.1667,206.5 81.5,206.833 81.5,207.5C 80.3199,209.014 79.3199,210.681 78.5,212.5C 77.8165,212.137 77.1499,211.804 76.5,211.5C 77.1667,209.5 77.8333,207.5 78.5,205.5C 77.8333,205.5 77.5,205.167 77.5,204.5C 77.5,203.833 77.5,203.167 77.5,202.5 Z"/></g>
<g><path style="opacity:0.646" fill="#201e20" d="M 133.5,195.5 C 133.938,195.435 134.272,195.601 134.5,196C 133.874,196.75 133.374,197.584 133,198.5C 132.346,197.304 131.846,197.304 131.5,198.5C 132.799,201.699 132.799,204.865 131.5,208C 132.381,208.708 133.047,209.542 133.5,210.5C 132.5,210.5 131.5,210.5 130.5,210.5C 130.666,205.821 130.499,201.155 130,196.5C 129.824,200.688 129.324,204.688 128.5,208.5C 128.756,204.731 128.423,201.064 127.5,197.5C 128.738,197.19 128.738,196.69 127.5,196C 129.473,195.505 131.473,195.338 133.5,195.5 Z"/></g>
<g><path style="opacity:0.565" fill="#352c2f" d="M 175.5,197.5 C 176.486,201.97 176.819,206.637 176.5,211.5C 175.5,211.167 174.833,210.5 174.5,209.5C 175.833,208.5 175.833,207.5 174.5,206.5C 174.5,205.833 174.5,205.167 174.5,204.5C 175.833,203.833 175.833,203.167 174.5,202.5C 174.629,200.784 174.962,199.117 175.5,197.5 Z"/></g>
<g><path style="opacity:0.924" fill="#181719" d="M 20.5,198.5 C 22.6146,202.564 24.6146,206.731 26.5,211C 24.6037,213.01 22.937,212.843 21.5,210.5C 20.7237,208.026 19.2237,207.359 17,208.5C 16.5357,207.906 16.369,207.239 16.5,206.5C 18.099,206.768 19.4324,206.434 20.5,205.5C 20.7373,204.209 20.404,203.209 19.5,202.5C 19.2322,200.901 19.5655,199.568 20.5,198.5 Z"/></g>
<g><path style="opacity:0.881" fill="#141316" d="M 57.5,205.5 C 58.5,206.167 59.5,206.833 60.5,207.5C 60.5,207.833 60.5,208.167 60.5,208.5C 59.1586,210.932 56.9919,212.266 54,212.5C 51.6013,212.387 49.7679,211.387 48.5,209.5C 50.035,210.354 51.3684,210.354 52.5,209.5C 53.7072,208.811 55.0406,208.645 56.5,209C 56.6526,207.791 56.9859,206.625 57.5,205.5 Z"/></g>
<g><path style="opacity:0.944" fill="#070508" d="M 106.5,204.5 C 107.117,204.611 107.617,204.944 108,205.5C 108.495,207.473 108.662,209.473 108.5,211.5C 108.565,211.938 108.399,212.272 108,212.5C 107.25,211.874 106.416,211.374 105.5,211C 105.719,208.705 106.052,206.539 106.5,204.5 Z"/></g>
<g><path style="opacity:0.073" fill="#221d1e" d="M 116.5,211.5 C 117.5,211.5 118.5,211.5 119.5,211.5C 120.113,205.729 119.446,200.396 117.5,195.5C 117.706,193.451 118.539,193.117 120,194.5C 120.197,199.086 120.697,203.586 121.5,208C 120.62,209.356 120.286,210.856 120.5,212.5C 118.901,212.768 117.568,212.434 116.5,211.5 Z"/></g>
<g><path style="opacity:0.922" fill="#110f10" d="M 143.5,208.5 C 145.235,209.057 146.902,209.39 148.5,209.5C 148.369,210.239 148.536,210.906 149,211.5C 149.671,210.748 150.504,210.414 151.5,210.5C 150.688,211.993 149.355,212.66 147.5,212.5C 144.898,212.533 142.898,211.533 141.5,209.5C 141.367,206.075 142.033,205.742 143.5,208.5 Z"/></g>
<g><path style="opacity:0.698" fill="#120e0f" d="M 161.5,198.5 C 163.43,202.373 164.097,206.706 163.5,211.5C 163.19,212.738 162.69,212.738 162,211.5C 161.797,207.579 161.297,203.745 160.5,200C 161.056,199.617 161.389,199.117 161.5,198.5 Z"/></g>
<g><path style="opacity:0.863" fill="#1d191a" d="M 173.5,204.5 C 173.328,205.492 173.662,206.158 174.5,206.5C 174.5,207.5 174.5,208.5 174.5,209.5C 174.167,209.5 173.833,209.5 173.5,209.5C 173.167,206.833 172.833,206.833 172.5,209.5C 171.662,209.842 171.328,210.508 171.5,211.5C 170.833,211.833 170.167,212.167 169.5,212.5C 168.449,211.778 167.782,210.778 167.5,209.5C 168.376,209.631 169.043,209.298 169.5,208.5C 168.754,207.264 168.421,205.93 168.5,204.5C 169.895,205.815 170.895,205.481 171.5,203.5C 172.925,201.969 173.591,202.302 173.5,204.5 Z"/></g>
<g><path style="opacity:0.498" fill="#201d1f" d="M 177.5,211.5 C 177.5,206.167 177.5,200.833 177.5,195.5C 176.5,195.5 175.5,195.5 174.5,195.5C 176.281,192.716 177.947,192.883 179.5,196C 179.417,199.5 179.417,203 179.5,206.5C 178.972,208.336 178.306,210.003 177.5,211.5 Z"/></g>
<g><path style="opacity:0.016" fill="#3f403f" d="M 35.5,207.5 C 36.8333,208.167 36.8333,208.167 35.5,207.5 Z"/></g>
<g><path style="opacity:0.752" fill="#070608" d="M 95.5,196.5 C 96.1667,197.167 96.8333,197.833 97.5,198.5C 97.5,198.833 97.5,199.167 97.5,199.5C 96.8401,200.964 96.5068,202.631 96.5,204.5C 96.288,207.011 96.9546,209.178 98.5,211C 97.2625,211.232 96.2625,211.732 95.5,212.5C 94.5084,212.672 93.8417,212.338 93.5,211.5C 95.3598,206.807 96.0265,201.807 95.5,196.5 Z"/></g>
<g><path style="opacity:0.016" fill="#3f403f" d="M 172.5,209.5 C 172.833,209.5 173.167,209.5 173.5,209.5C 173.315,210.17 172.981,210.17 172.5,209.5 Z"/></g>
<g><path style="opacity:0.008" fill="#000000" d="M 21.5,210.5 C 20.8333,211.167 20.8333,211.167 21.5,210.5 Z"/></g>
<g><path style="opacity:0.89" fill="#191217" d="M 68.5,205.5 C 69.2216,205.918 69.7216,206.584 70,207.5C 70.3826,206.944 70.8826,206.611 71.5,206.5C 71.3744,208.279 71.7078,210.279 72.5,212.5C 71.1779,212.67 70.0113,212.337 69,211.5C 68.654,209.782 68.154,208.115 67.5,206.5C 67.6236,205.893 67.9569,205.56 68.5,205.5 Z"/></g>
<g><path style="opacity:0.02" fill="#323332" d="M 171.5,211.5 C 172.833,212.167 172.833,212.167 171.5,211.5 Z"/></g>
<g><path style="opacity:0.02" fill="#323332" d="M 169.5,212.5 C 168.833,213.167 168.833,213.167 169.5,212.5 Z"/></g>
</svg>
